<svg width="293" height="229" viewBox="0 0 293 229" fill="none" xmlns="http://www.w3.org/2000/svg">
<path fill-rule="evenodd" clip-rule="evenodd" d="M55.9373 15.4122C6.10913 120.931 -5.98195 180.161 11.6399 225.937C11.9375 226.71 11.552 227.579 10.7789 227.876C10.0058 228.174 9.13779 227.788 8.84017 227.015C-9.29073 179.916 3.42598 119.574 53.2538 14.0694L53.2828 14.0078L53.3174 13.9492C56.0077 9.3776 58.2552 6.10876 60.1336 4.02816C61.0705 2.99051 61.9729 2.18325 62.8501 1.66698C63.7256 1.1517 64.7308 0.839384 65.7643 1.08578C66.8122 1.33562 67.5325 2.07355 68.0135 2.88783C68.4896 3.69385 68.8169 4.7096 69.0536 5.82851C69.5286 8.07399 69.7144 11.1188 69.7236 14.7061C69.7609 29.2126 65.7939 44.9878 56.0638 78.109L48.5118 112.345L48.51 112.353L48.5082 112.361C45.4473 125.542 43.9598 134.286 43.7391 139.603C43.6271 142.302 43.8557 143.896 44.2125 144.718C44.3776 145.099 44.518 145.192 44.5474 145.209L44.5482 145.209C44.5643 145.219 44.6463 145.266 44.9029 145.218C45.5355 145.099 46.587 144.523 48.1039 143.225C49.5663 141.975 51.2804 140.215 53.2259 138.031C56.8032 134.016 61.0459 128.697 65.7914 122.749L65.7915 122.749L65.7919 122.748L65.792 122.748L65.7923 122.748L66.5216 121.834L67.0471 121.175C69.6339 117.879 71.8047 115.29 73.6569 113.333C75.4958 111.39 77.0889 109.997 78.5253 109.17C79.9829 108.33 81.4529 107.979 82.8968 108.445C84.2721 108.889 85.2841 109.973 86.1033 111.179L86.2705 111.425L86.331 111.716C86.5664 112.849 86.7791 113.894 86.9755 114.86C87.4327 117.107 87.8013 118.919 88.1611 120.375C88.4165 121.407 88.6535 122.2 88.893 122.8C89.1369 123.41 89.3456 123.722 89.4937 123.874C89.6026 123.986 89.6629 124.002 89.7432 124.008C89.8821 124.02 90.1713 123.993 90.7024 123.783C91.795 123.351 93.3203 122.395 95.6271 120.858C97.9102 119.336 99.65 118.293 100.992 117.667C102.259 117.076 103.495 116.693 104.604 116.979C105.9 117.312 106.459 118.372 106.749 119.15C106.899 119.551 107.019 119.991 107.127 120.398L107.187 120.627C107.239 120.826 107.291 121.023 107.346 121.223C108.003 121.721 108.635 122.113 109.243 122.42C111.919 113.497 114.777 104.625 117.651 96.7754C123.532 80.7142 132.756 59.9938 140.496 43.316C144.368 34.9712 147.874 27.6276 150.412 22.3701C151.681 19.7412 152.708 17.6336 153.418 16.1828C153.773 15.4574 154.049 14.8962 154.236 14.5161L154.396 14.1909L154.449 14.0839L154.504 13.9736L154.517 13.9457L154.521 13.9386L154.522 13.9367C154.522 13.9363 154.522 13.9361 155.866 14.6015C157.211 15.2669 157.211 15.267 157.211 15.2674L157.21 15.269L157.206 15.2758L157.193 15.3031L157.139 15.4119C157.092 15.5083 157.021 15.6521 156.928 15.8411C156.741 16.2192 156.467 16.7784 156.113 17.5016C155.405 18.948 154.38 21.0507 153.114 23.6742C150.581 28.9215 147.082 36.2509 143.217 44.5789C135.482 61.2467 126.303 81.8712 120.468 97.8069C117.613 105.604 114.77 114.432 112.104 123.324C113.427 123.498 114.698 123.338 115.958 123.008C117.05 122.722 118.067 122.33 119.116 121.926C119.41 121.812 119.707 121.697 120.009 121.584C121.307 121.096 122.753 120.606 124.19 120.606C125.019 120.606 125.69 121.277 125.69 122.106C125.69 122.934 125.019 123.606 124.19 123.606C123.359 123.606 122.377 123.899 121.064 124.392C120.814 124.486 120.552 124.588 120.28 124.693L120.278 124.693C119.211 125.106 117.99 125.577 116.718 125.91C115.084 126.338 113.259 126.573 111.274 126.232L111.24 126.226C108.785 134.539 106.5 142.815 104.519 150.264C102.401 158.226 100.634 165.232 99.3806 170.311C104.414 169.127 109.577 167.901 114.845 166.645L140.968 123.241L140.973 123.232C142.446 120.822 143.71 119.074 144.825 118.044C145.379 117.532 146.02 117.08 146.746 116.898C147.57 116.691 148.376 116.866 149.032 117.386C149.609 117.843 149.982 118.497 150.245 119.123C150.518 119.772 150.735 120.546 150.918 121.397C151.272 123.046 151.539 125.18 151.789 127.664C152.096 128.351 152.344 128.743 152.53 128.95C152.556 128.979 152.578 129.002 152.596 129.018C152.678 128.984 152.841 128.901 153.099 128.699C153.524 128.367 154.056 127.836 154.74 127.058C155.286 126.435 156.234 126.374 156.857 126.921C157.479 127.468 157.54 128.415 156.993 129.038C156.274 129.857 155.595 130.556 154.947 131.062C154.321 131.552 153.546 132.005 152.65 132.039C151.653 132.076 150.87 131.59 150.299 130.955C149.763 130.359 149.33 129.547 148.941 128.637L148.85 128.425L148.828 128.196C148.571 125.617 148.312 123.548 147.985 122.027C147.821 121.267 147.651 120.694 147.48 120.285C147.41 120.119 147.346 119.995 147.291 119.904C147.181 119.975 147.037 120.084 146.86 120.248C146.074 120.974 144.992 122.41 143.535 124.792L143.533 124.796L118.934 165.669C120.767 165.231 122.612 164.79 124.468 164.347L124.562 164.324L124.563 164.324L124.6 164.315L124.64 164.306L124.776 164.273C128.77 163.318 132.815 162.352 136.901 161.379C150.592 158.117 164.742 154.78 178.99 151.566C180.833 144.517 182.553 137.703 184.209 130.981C184.001 130.971 183.794 130.962 183.588 130.952L183.186 130.933C179.171 130.741 175.676 130.597 172.967 130.997C170.243 131.399 168.83 132.271 168.258 133.661C167.942 134.427 167.066 134.792 166.299 134.477C165.533 134.161 165.168 133.285 165.484 132.519C166.676 129.623 169.486 128.478 172.529 128.029C175.587 127.578 179.403 127.749 183.329 127.936L183.667 127.952C184.088 127.972 184.512 127.992 184.937 128.012C187.664 116.861 190.235 105.907 192.915 94.4928L192.915 94.4921C197.81 73.6373 203.066 51.2455 210.293 23.3016C210.5 22.4996 211.318 22.0175 212.121 22.225C212.923 22.4324 213.405 23.2507 213.197 24.0528C206.011 51.8387 200.762 74.1987 195.864 95.0587L195.864 95.0596L195.864 95.0608C193.221 106.317 190.681 117.136 187.994 128.136C190.516 128.216 193.062 128.228 195.55 128.048C199.585 127.757 203.343 126.966 206.479 125.224C207.203 124.822 208.116 125.082 208.518 125.807C208.921 126.531 208.66 127.444 207.936 127.846C204.264 129.886 200.018 130.733 195.766 131.041C192.934 131.245 190.045 131.213 187.265 131.113C185.678 137.562 184.034 144.092 182.283 150.826C219.812 142.419 257.829 134.97 289.762 132.1C290.588 132.026 291.317 132.635 291.391 133.46C291.465 134.285 290.856 135.014 290.031 135.088C257.847 137.981 219.393 145.56 181.429 154.092C178.723 164.391 175.752 175.203 172.345 186.953C172.114 187.749 171.282 188.207 170.487 187.976C169.691 187.745 169.233 186.913 169.464 186.118C172.701 174.954 175.54 164.651 178.132 154.836C164.424 157.938 150.806 161.15 137.596 164.297C133.458 165.283 129.359 166.262 125.311 167.23L125.301 167.232L125.271 167.239C122.41 167.923 119.574 168.601 116.766 169.271L110.765 179.242L110.752 179.262L110.74 179.282C107.437 184.395 104.631 188.574 102.35 191.557C101.211 193.046 100.175 194.275 99.2522 195.182C98.3801 196.04 97.4246 196.801 96.4375 197.058C95.8905 197.201 95.2545 197.209 94.6403 196.909C94.0408 196.617 93.653 196.125 93.4056 195.635C92.9419 194.718 92.7858 193.445 92.7669 192.019C92.728 189.083 93.2804 184.526 94.3886 178.209L94.3958 178.168L94.4053 178.127L95.866 178.468C94.4053 178.127 94.4053 178.127 94.4054 178.127L94.4058 178.125L94.4075 178.118L94.4138 178.091L94.439 177.983C94.4612 177.889 94.4943 177.748 94.5379 177.563C94.6252 177.194 94.7545 176.649 94.9233 175.944L94.9856 175.683C95.0194 175.542 95.0547 175.395 95.0913 175.243C95.1585 174.963 95.2305 174.664 95.3069 174.348C85.7406 176.581 76.6752 178.643 68.2814 180.439C48.2751 184.721 31.9264 187.531 21.6594 187.531C20.831 187.531 20.1594 186.86 20.1594 186.031C20.1594 185.203 20.831 184.531 21.6594 184.531C31.5606 184.531 47.6071 181.796 67.6536 177.506C76.4589 175.621 86.0055 173.444 96.102 171.081C96.1933 170.708 96.288 170.323 96.386 169.925C97.6468 164.808 99.4499 157.651 101.62 149.493C103.607 142.021 105.904 133.7 108.376 125.331C107.302 124.842 106.209 124.168 105.099 123.274L104.736 122.983L104.602 122.537C104.478 122.124 104.373 121.724 104.282 121.375L104.281 121.373L104.281 121.373L104.226 121.165C104.117 120.753 104.03 120.445 103.938 120.198C103.876 120.032 103.828 119.935 103.796 119.882C103.741 119.883 103.648 119.892 103.507 119.923C103.225 119.986 102.823 120.123 102.261 120.386C101.132 120.912 99.546 121.851 97.2912 123.354C95.0602 124.841 93.2541 126 91.8055 126.573C91.066 126.865 90.2821 127.064 89.4934 126.998C88.6461 126.927 87.9242 126.563 87.3443 125.967C86.8037 125.412 86.417 124.689 86.107 123.913C85.7924 123.125 85.5168 122.179 85.2488 121.095C84.8732 119.575 84.485 117.667 84.0201 115.382L84.0196 115.379C83.844 114.516 83.6574 113.599 83.4564 112.629C82.8429 111.78 82.3595 111.424 81.9757 111.3C81.6266 111.187 81.0584 111.173 80.0226 111.77C78.9656 112.378 77.6102 113.52 75.8356 115.395C74.0751 117.255 71.9685 119.764 69.4036 123.032L69.396 123.041C68.9679 123.578 68.5432 124.11 68.1219 124.638C63.3961 130.562 59.101 135.946 55.466 140.027C53.4865 142.249 51.6681 144.125 50.0538 145.505C48.4941 146.839 46.9247 147.891 45.4554 148.167C44.6654 148.315 43.8246 148.253 43.0552 147.811C42.3011 147.379 41.7956 146.685 41.4604 145.912C40.8165 144.428 40.6267 142.25 40.7417 139.479C40.9751 133.857 42.5228 124.874 45.584 111.69L45.5859 111.682L53.1453 77.4125L53.1564 77.3622L53.1709 77.3128C62.9421 44.0539 66.7596 28.7092 66.7237 14.7138C66.7146 11.1738 66.5273 8.38176 66.1185 6.44938C65.9133 5.47936 65.6711 4.82092 65.4305 4.41357C65.3141 4.21665 65.217 4.11078 65.1546 4.05756C65.1003 4.0113 65.0737 4.00518 65.0689 4.00408L65.0686 4.00399L65.0685 4.00397C65.0628 4.00261 65.0188 3.99211 64.9117 4.0164C64.7971 4.04241 64.6191 4.10683 64.3717 4.25243C63.8656 4.55029 63.1986 5.11011 62.3604 6.03855C60.6959 7.88212 58.5819 10.9231 55.9373 15.4122ZM155.866 14.6015L154.522 13.9361C154.89 13.1936 155.789 12.8897 156.532 13.2571C157.274 13.6246 157.578 14.5244 157.211 15.2669L155.866 14.6015ZM98.5795 173.581C98.2833 174.799 98.0357 175.828 97.8409 176.642C97.6729 177.344 97.5442 177.886 97.4576 178.253L97.4072 178.467L97.3596 178.669L97.3362 178.769C96.234 185.058 95.7319 189.357 95.7666 191.979C95.7802 193.005 95.8772 193.644 95.982 194.01C96.2339 193.856 96.6186 193.565 97.1488 193.043C97.9266 192.278 98.864 191.176 99.9666 189.734C102.166 186.858 104.912 182.775 108.207 177.674L112.678 170.245C107.882 171.387 103.176 172.502 98.5795 173.581ZM103.754 119.825C103.754 119.824 103.759 119.829 103.769 119.842C103.758 119.833 103.753 119.826 103.754 119.825ZM152.652 129.064C152.652 129.064 152.65 129.063 152.645 129.06C152.65 129.062 152.652 129.064 152.652 129.064Z" fill="#4E4E4E"/>
<path d="M11.6399 225.937L10.7067 226.297L10.7067 226.297L11.6399 225.937ZM55.9373 15.4122L55.0757 14.9046L55.0526 14.9439L55.0331 14.9852L55.9373 15.4122ZM10.7789 227.876L10.4197 226.943L10.4197 226.943L10.7789 227.876ZM8.84017 227.015L7.90693 227.374L7.90693 227.374L8.84017 227.015ZM53.2538 14.0694L54.158 14.4964L54.158 14.4964L53.2538 14.0694ZM53.2828 14.0078L52.421 13.5006L52.398 13.5397L52.3786 13.5808L53.2828 14.0078ZM53.3174 13.9492L54.1792 14.4564L54.1792 14.4563L53.3174 13.9492ZM60.1336 4.02816L59.3914 3.35803L59.3914 3.35803L60.1336 4.02816ZM62.8501 1.66698L63.3573 2.52879L63.3573 2.52879L62.8501 1.66698ZM65.7643 1.08578L65.9962 0.113043L65.9962 0.113043L65.7643 1.08578ZM68.0135 2.88783L68.8745 2.37924L68.8745 2.37924L68.0135 2.88783ZM69.0536 5.82851L70.0319 5.62155L70.0319 5.62155L69.0536 5.82851ZM69.7236 14.7061L70.7236 14.7035L70.7236 14.7035L69.7236 14.7061ZM56.0638 78.109L55.1043 77.8271L55.0947 77.8601L55.0873 77.8936L56.0638 78.109ZM48.5118 112.345L47.5353 112.129L47.5352 112.13L48.5118 112.345ZM48.51 112.353L49.4841 112.579L49.4866 112.568L48.51 112.353ZM48.5082 112.361L47.5341 112.134L47.5341 112.135L48.5082 112.361ZM43.7391 139.603L44.7383 139.645L44.7383 139.645L43.7391 139.603ZM44.2125 144.718L43.2951 145.116L43.2951 145.116L44.2125 144.718ZM44.5474 145.209L45.0473 144.343L45.0448 144.341L44.5474 145.209ZM44.5482 145.209L45.0486 144.344L45.0481 144.343L44.5482 145.209ZM44.9029 145.218L45.0871 146.201L45.0871 146.201L44.9029 145.218ZM48.1039 143.225L47.4539 142.465L47.4539 142.465L48.1039 143.225ZM53.2259 138.031L53.9726 138.697L53.9726 138.697L53.2259 138.031ZM65.7914 122.749L65.0231 122.109L65.0163 122.117L65.0096 122.125L65.7914 122.749ZM65.7915 122.749L66.5597 123.389L66.5646 123.383L66.5694 123.377L65.7915 122.749ZM65.7919 122.748L66.5699 123.377L66.5728 123.373L65.7919 122.748ZM65.7923 122.748L66.5732 123.372L66.574 123.371L65.7923 122.748ZM66.5216 121.834L65.7399 121.21L65.7399 121.21L66.5216 121.834ZM67.0471 121.175L67.8288 121.799L67.8338 121.793L67.0471 121.175ZM73.6569 113.333L74.3831 114.02L73.6569 113.333ZM78.5253 109.17L78.0263 108.303L78.0263 108.303L78.5253 109.17ZM82.8968 108.445L82.5898 109.397L82.5898 109.397L82.8968 108.445ZM86.1033 111.179L85.2761 111.741L85.2761 111.741L86.1033 111.179ZM86.2705 111.425L87.2496 111.221L87.2092 111.027L87.0977 110.863L86.2705 111.425ZM86.331 111.716L85.352 111.92L85.352 111.92L86.331 111.716ZM86.9755 114.86L87.9554 114.66L87.9554 114.66L86.9755 114.86ZM88.1611 120.375L89.1319 120.135L89.1319 120.135L88.1611 120.375ZM88.893 122.8L87.9643 123.171L87.9643 123.171L88.893 122.8ZM89.4937 123.874L88.7772 124.572L88.7772 124.572L89.4937 123.874ZM89.7432 124.008L89.8265 123.012L89.8264 123.012L89.7432 124.008ZM90.7024 123.783L90.3347 122.853L90.3347 122.853L90.7024 123.783ZM95.6271 120.858L95.0724 120.026L95.0724 120.026L95.6271 120.858ZM100.992 117.667L100.57 116.761L100.57 116.761L100.992 117.667ZM104.604 116.979L104.853 116.01L104.853 116.01L104.604 116.979ZM106.749 119.15L107.686 118.8L107.686 118.8L106.749 119.15ZM107.127 120.398L108.094 120.143L108.093 120.142L107.127 120.398ZM107.187 120.627L108.154 120.373L108.154 120.372L107.187 120.627ZM107.346 121.223L106.382 121.489L106.472 121.816L106.743 122.021L107.346 121.223ZM109.243 122.42L108.792 123.312L109.858 123.85L110.201 122.707L109.243 122.42ZM117.651 96.7754L116.712 96.4316L116.712 96.4316L117.651 96.7754ZM140.496 43.316L141.403 43.737L141.403 43.737L140.496 43.316ZM150.412 22.3701L149.511 21.9354L149.511 21.9354L150.412 22.3701ZM153.418 16.1828L154.316 16.6224L154.316 16.6224L153.418 16.1828ZM154.236 14.5161L153.339 14.0741L153.339 14.0744L154.236 14.5161ZM154.396 14.1909L153.5 13.7484L153.499 13.7489L154.396 14.1909ZM154.449 14.0839L153.553 13.641L153.552 13.6414L154.449 14.0839ZM154.504 13.9736L153.607 13.5305L153.607 13.5307L154.504 13.9736ZM154.517 13.9457L153.622 13.5013L153.621 13.5025L154.517 13.9457ZM154.521 13.9386L155.417 14.3829L155.417 14.3815L154.521 13.9386ZM154.522 13.9367L155.418 14.3796L155.424 14.3681L155.43 14.3563L154.522 13.9367ZM155.866 14.6015L156.31 13.7053L156.31 13.7053L155.866 14.6015ZM157.211 15.2674L158.109 15.7073L158.109 15.7066L157.211 15.2674ZM157.21 15.269L158.105 15.7138L158.108 15.709L157.21 15.269ZM157.206 15.2758L156.311 14.831L156.31 14.8328L157.206 15.2758ZM157.193 15.3031L156.296 14.86L156.296 14.8602L157.193 15.3031ZM157.139 15.4119L156.243 14.969L156.242 14.9692L157.139 15.4119ZM156.928 15.8411L157.825 16.2828L157.825 16.2828L156.928 15.8411ZM156.113 17.5016L157.011 17.9412L157.011 17.9411L156.113 17.5016ZM153.114 23.6742L152.213 23.2395L152.213 23.2395L153.114 23.6742ZM143.217 44.5789L144.124 44.9998L144.124 44.9998L143.217 44.5789ZM120.468 97.8069L121.407 98.1508L121.407 98.1508L120.468 97.8069ZM112.104 123.324L111.146 123.036L110.808 124.162L111.973 124.315L112.104 123.324ZM115.958 123.008L115.705 122.041L115.705 122.041L115.958 123.008ZM119.116 121.926L118.756 120.993L118.756 120.993L119.116 121.926ZM120.009 121.584L119.657 120.648L119.657 120.648L120.009 121.584ZM121.064 124.392L121.416 125.329L121.416 125.329L121.064 124.392ZM120.28 124.693L120.636 125.627L120.64 125.626L120.28 124.693ZM120.278 124.693L119.922 123.759L119.918 123.761L120.278 124.693ZM116.718 125.91L116.971 126.878L116.971 126.878L116.718 125.91ZM111.274 126.232L111.103 127.217L111.104 127.217L111.274 126.232ZM111.24 126.226L111.411 125.241L110.533 125.088L110.281 125.943L111.24 126.226ZM104.519 150.264L103.553 150.007L103.553 150.007L104.519 150.264ZM99.3806 170.311L98.4097 170.072L98.0181 171.659L99.6096 171.285L99.3806 170.311ZM114.845 166.645L115.077 167.617L115.485 167.52L115.702 167.16L114.845 166.645ZM140.968 123.241L140.113 122.721L140.111 122.725L140.968 123.241ZM140.973 123.232L140.12 122.71L140.118 122.712L140.973 123.232ZM144.825 118.044L144.146 117.31L144.146 117.31L144.825 118.044ZM146.746 116.898L146.503 115.928L146.503 115.928L146.746 116.898ZM149.032 117.386L148.411 118.17L148.411 118.17L149.032 117.386ZM150.245 119.123L151.167 118.736L151.167 118.736L150.245 119.123ZM150.918 121.397L149.94 121.607L149.94 121.607L150.918 121.397ZM151.789 127.664L150.794 127.764L150.81 127.924L150.876 128.072L151.789 127.664ZM152.53 128.95L153.274 128.281L153.274 128.281L152.53 128.95ZM152.596 129.018L151.908 129.744L152.378 130.189L152.977 129.943L152.596 129.018ZM153.099 128.699L153.715 129.487L153.715 129.487L153.099 128.699ZM154.74 127.058L153.988 126.398L153.988 126.398L154.74 127.058ZM156.993 129.038L157.745 129.698L157.745 129.698L156.993 129.038ZM154.947 131.062L155.563 131.85L155.563 131.85L154.947 131.062ZM152.65 132.039L152.613 131.039L152.613 131.039L152.65 132.039ZM150.299 130.955L151.043 130.287L151.043 130.287L150.299 130.955ZM148.941 128.637L148.022 129.031L148.022 129.031L148.941 128.637ZM148.85 128.425L147.855 128.524L147.87 128.677L147.931 128.819L148.85 128.425ZM148.828 128.196L147.832 128.295L147.832 128.295L148.828 128.196ZM147.985 122.027L147.007 122.237L147.007 122.237L147.985 122.027ZM147.48 120.285L146.558 120.673L146.558 120.673L147.48 120.285ZM147.291 119.904L148.146 119.386L147.614 118.508L146.751 119.063L147.291 119.904ZM146.86 120.248L147.539 120.983L147.539 120.983L146.86 120.248ZM143.535 124.792L142.682 124.271L142.682 124.272L143.535 124.792ZM143.533 124.796L142.679 124.276L142.676 124.281L143.533 124.796ZM118.934 165.669L118.077 165.153L116.848 167.195L119.166 166.641L118.934 165.669ZM124.468 164.347L124.701 165.319L124.701 165.319L124.468 164.347ZM124.562 164.324L124.345 163.348L124.338 163.35L124.33 163.351L124.562 164.324ZM124.563 164.324L124.78 165.3L124.788 165.298L124.796 165.296L124.563 164.324ZM124.6 164.315L124.368 163.342L124.368 163.342L124.6 164.315ZM124.64 164.306L124.407 163.333L124.407 163.333L124.64 164.306ZM124.776 164.273L125.008 165.246L125.008 165.246L124.776 164.273ZM136.901 161.379L136.669 160.406L136.669 160.406L136.901 161.379ZM178.99 151.566L179.211 152.541L179.804 152.407L179.958 151.818L178.99 151.566ZM184.209 130.981L185.18 131.221L185.47 130.04L184.256 129.982L184.209 130.981ZM183.588 130.952L183.636 129.953L183.636 129.953L183.588 130.952ZM183.186 130.933L183.234 129.934L183.234 129.934L183.186 130.933ZM172.967 130.997L173.113 131.986L173.113 131.986L172.967 130.997ZM168.258 133.661L169.182 134.042L169.182 134.042L168.258 133.661ZM166.299 134.477L166.68 133.552L166.68 133.552L166.299 134.477ZM165.484 132.519L164.559 132.138L164.559 132.138L165.484 132.519ZM172.529 128.029L172.383 127.04L172.383 127.04L172.529 128.029ZM183.329 127.936L183.376 126.937L183.376 126.937L183.329 127.936ZM183.667 127.952L183.714 126.953L183.714 126.953L183.667 127.952ZM184.937 128.012L184.891 129.011L185.713 129.049L185.909 128.25L184.937 128.012ZM192.915 94.4928L191.943 94.2572L191.941 94.2643L192.915 94.4928ZM192.915 94.4921L193.887 94.7277L193.888 94.7206L192.915 94.4921ZM210.293 23.3016L209.325 23.0512L209.325 23.0512L210.293 23.3016ZM213.197 24.0528L212.229 23.8024L212.229 23.8024L213.197 24.0528ZM195.864 95.0587L194.891 94.8302L194.888 94.8414L194.886 94.8527L195.864 95.0587ZM195.864 95.0596L196.838 95.2844L196.84 95.275L196.842 95.2656L195.864 95.0596ZM195.864 95.0608L196.837 95.2893L196.838 95.2856L195.864 95.0608ZM187.994 128.136L187.023 127.898L186.73 129.096L187.962 129.135L187.994 128.136ZM195.55 128.048L195.477 127.051L195.477 127.051L195.55 128.048ZM206.479 125.224L206.964 126.098L206.964 126.098L206.479 125.224ZM208.518 125.807L207.644 126.292L207.644 126.292L208.518 125.807ZM207.936 127.846L208.421 128.72L208.421 128.72L207.936 127.846ZM195.766 131.041L195.694 130.043L195.694 130.043L195.766 131.041ZM187.265 131.113L187.301 130.113L186.488 130.084L186.294 130.874L187.265 131.113ZM182.283 150.826L181.315 150.574L180.902 152.159L182.501 151.801L182.283 150.826ZM289.762 132.1L289.852 133.096L289.852 133.096L289.762 132.1ZM291.391 133.46L292.387 133.37L292.387 133.37L291.391 133.46ZM290.031 135.088L289.942 134.092L289.942 134.092L290.031 135.088ZM181.429 154.092L181.209 153.116L180.616 153.25L180.462 153.838L181.429 154.092ZM172.345 186.953L171.385 186.675L171.385 186.675L172.345 186.953ZM170.487 187.976L170.208 188.937L170.208 188.937L170.487 187.976ZM169.464 186.118L170.424 186.396L170.424 186.396L169.464 186.118ZM178.132 154.836L179.098 155.091L179.519 153.496L177.911 153.86L178.132 154.836ZM137.596 164.297L137.364 163.324L137.364 163.324L137.596 164.297ZM125.311 167.23L125.542 168.203L125.543 168.202L125.311 167.23ZM125.301 167.232L125.069 166.259L125.068 166.259L125.301 167.232ZM125.271 167.239L125.504 168.212L125.504 168.212L125.271 167.239ZM116.766 169.271L116.534 168.298L116.126 168.395L115.909 168.755L116.766 169.271ZM110.765 179.242L111.622 179.757L111.622 179.757L110.765 179.242ZM110.752 179.262L111.592 179.805L111.601 179.791L111.609 179.778L110.752 179.262ZM110.74 179.282L109.9 178.74L109.9 178.74L110.74 179.282ZM102.35 191.557L101.555 190.949L101.555 190.949L102.35 191.557ZM99.2522 195.182L98.5511 194.469L98.5511 194.469L99.2522 195.182ZM96.4375 197.058L96.1852 196.091L96.1852 196.091L96.4375 197.058ZM94.6403 196.909L94.202 197.808L94.202 197.808L94.6403 196.909ZM93.4056 195.635L94.298 195.184L94.298 195.184L93.4056 195.635ZM92.7669 192.019L91.767 192.032L91.767 192.032L92.7669 192.019ZM94.3886 178.209L93.4036 178.036L93.4036 178.036L94.3886 178.209ZM94.3958 178.168L93.422 177.941L93.4156 177.968L93.4108 177.995L94.3958 178.168ZM94.4053 178.127L94.6325 177.154L93.6588 176.926L93.4315 177.9L94.4053 178.127ZM94.4054 178.127L95.3756 178.369L95.3775 178.361L95.3793 178.354L94.4054 178.127ZM94.4058 178.125L93.4321 177.897L93.4319 177.898L94.4058 178.125ZM94.4075 178.118L93.4338 177.89L93.4337 177.891L94.4075 178.118ZM94.4138 178.091L93.4403 177.862L93.4401 177.863L94.4138 178.091ZM94.439 177.983L93.4655 177.755L93.4654 177.755L94.439 177.983ZM94.5379 177.563L95.5112 177.793L95.5112 177.793L94.5379 177.563ZM94.9233 175.944L93.9508 175.711L93.9507 175.711L94.9233 175.944ZM94.9856 175.683L94.0131 175.45L94.0131 175.45L94.9856 175.683ZM95.0913 175.243L94.119 175.009L94.119 175.009L95.0913 175.243ZM95.3069 174.348L96.279 174.582L96.6599 173.005L95.0796 173.374L95.3069 174.348ZM68.2814 180.439L68.0721 179.461L68.0721 179.461L68.2814 180.439ZM67.6536 177.506L67.4444 176.528L67.4444 176.528L67.6536 177.506ZM96.102 171.081L96.3299 172.054L96.9272 171.915L97.0732 171.319L96.102 171.081ZM96.386 169.925L97.357 170.164L97.357 170.164L96.386 169.925ZM101.62 149.493L102.586 149.75L102.586 149.75L101.62 149.493ZM108.376 125.331L109.335 125.614L109.582 124.78L108.79 124.42L108.376 125.331ZM105.099 123.274L104.472 124.053L104.472 124.053L105.099 123.274ZM104.736 122.983L103.779 123.27L103.868 123.567L104.109 123.762L104.736 122.983ZM104.602 122.537L103.645 122.825L103.645 122.825L104.602 122.537ZM104.282 121.375L105.249 121.121L105.249 121.12L104.282 121.375ZM104.281 121.373L103.295 121.538L103.303 121.584L103.314 121.629L104.281 121.373ZM104.281 121.373L105.268 121.209L105.26 121.163L105.248 121.119L104.281 121.373ZM104.226 121.165L105.194 120.911L105.193 120.91L104.226 121.165ZM103.938 120.198L104.875 119.849L104.875 119.849L103.938 120.198ZM103.796 119.882L104.653 119.368L104.354 118.87L103.774 118.882L103.796 119.882ZM103.507 119.923L103.29 118.947L103.29 118.947L103.507 119.923ZM102.261 120.386L102.683 121.292L102.683 121.292L102.261 120.386ZM97.2912 123.354L96.7365 122.522L96.7365 122.522L97.2912 123.354ZM91.8055 126.573L91.4378 125.643L91.4378 125.643L91.8055 126.573ZM89.4934 126.998L89.4101 127.994L89.4101 127.994L89.4934 126.998ZM87.3443 125.967L88.0608 125.269L88.0608 125.269L87.3443 125.967ZM86.107 123.913L87.0357 123.542L87.0357 123.542L86.107 123.913ZM85.2488 121.095L86.2196 120.855L86.2196 120.855L85.2488 121.095ZM84.0201 115.382L85 115.182L84.9995 115.18L84.0201 115.382ZM84.0196 115.379L83.0397 115.579L83.0402 115.581L84.0196 115.379ZM83.4564 112.629L84.4356 112.426L84.3922 112.216L84.2668 112.043L83.4564 112.629ZM81.9757 111.3L82.2827 110.348L82.2827 110.348L81.9757 111.3ZM80.0226 111.77L80.5217 112.636L80.5217 112.636L80.0226 111.77ZM75.8356 115.395L75.1094 114.708L75.1094 114.708L75.8356 115.395ZM69.4036 123.032L70.1878 123.652L70.1903 123.649L69.4036 123.032ZM69.396 123.041L70.1775 123.665L70.1801 123.662L69.396 123.041ZM68.1219 124.638L67.3401 124.015L67.3401 124.015L68.1219 124.638ZM55.466 140.027L56.2127 140.692L56.2127 140.692L55.466 140.027ZM50.0538 145.505L49.4039 144.745L49.4039 144.745L50.0538 145.505ZM45.4554 148.167L45.2712 147.184L45.2712 147.184L45.4554 148.167ZM43.0552 147.811L42.5578 148.679L42.5578 148.679L43.0552 147.811ZM41.4604 145.912L42.3778 145.514L42.3778 145.514L41.4604 145.912ZM40.7417 139.479L41.7409 139.52L41.7409 139.52L40.7417 139.479ZM45.584 111.69L46.5581 111.917L46.5581 111.917L45.584 111.69ZM45.5859 111.682L46.5601 111.908L46.5624 111.898L45.5859 111.682ZM53.1453 77.4125L54.1218 77.6279L54.1219 77.6279L53.1453 77.4125ZM53.1564 77.3622L52.197 77.0803L52.1873 77.1132L52.1799 77.1468L53.1564 77.3622ZM53.1709 77.3128L54.1304 77.5947L54.1304 77.5947L53.1709 77.3128ZM66.7237 14.7138L67.7237 14.7112L67.7237 14.7112L66.7237 14.7138ZM66.1185 6.44938L65.1402 6.65634L65.1402 6.65634L66.1185 6.44938ZM65.4305 4.41357L66.2915 3.905L66.2915 3.90499L65.4305 4.41357ZM65.1546 4.05756L65.8036 3.29676L65.8035 3.29676L65.1546 4.05756ZM65.0689 4.00408L64.8395 4.97743L64.845 4.97869L65.0689 4.00408ZM65.0686 4.00399L65.298 3.03062L65.2895 3.02871L65.0686 4.00399ZM65.0685 4.00397L64.8363 4.97672L64.8475 4.97925L65.0685 4.00397ZM64.9117 4.0164L64.6904 3.04119L64.6904 3.04119L64.9117 4.0164ZM64.3717 4.25243L64.879 5.11425L64.879 5.11425L64.3717 4.25243ZM62.3604 6.03855L63.1026 6.70868L63.1026 6.70868L62.3604 6.03855ZM154.522 13.9361L153.626 13.4925L153.182 14.3887L154.079 14.8323L154.522 13.9361ZM156.532 13.2571L156.088 14.1534L156.088 14.1534L156.532 13.2571ZM157.211 15.2669L156.767 16.1631L157.663 16.6067L158.107 15.7105L157.211 15.2669ZM97.8409 176.642L98.8134 176.874L98.8134 176.874L97.8409 176.642ZM98.5795 173.581L98.351 172.608L97.753 172.748L97.6078 173.345L98.5795 173.581ZM97.4576 178.253L96.4844 178.023L96.4843 178.023L97.4576 178.253ZM97.4072 178.467L96.4339 178.237L96.4337 178.238L97.4072 178.467ZM97.3596 178.669L96.3862 178.44L96.386 178.441L97.3596 178.669ZM97.3362 178.769L96.3626 178.541L96.3561 178.568L96.3512 178.596L97.3362 178.769ZM95.7666 191.979L96.7666 191.966L96.7666 191.966L95.7666 191.979ZM95.982 194.01L95.0207 194.286L95.3824 195.548L96.5033 194.864L95.982 194.01ZM97.1488 193.043L97.85 193.756L97.85 193.756L97.1488 193.043ZM99.9666 189.734L99.1722 189.127L99.1722 189.127L99.9666 189.734ZM108.207 177.674L109.047 178.217L109.055 178.204L109.064 178.19L108.207 177.674ZM112.678 170.245L113.535 170.761L114.763 168.721L112.446 169.272L112.678 170.245ZM103.754 119.825L104.721 120.078L104.722 120.075L103.754 119.825ZM103.769 119.842L103.135 120.615L104.568 119.241L103.769 119.842ZM152.652 129.064L151.664 128.912L151.658 128.952L151.655 128.992L152.652 129.064ZM152.645 129.06L153.089 128.163L152.081 129.885L152.645 129.06ZM12.5731 225.578C-4.88018 180.239 7.00511 121.375 56.8416 15.8392L55.0331 14.9852C5.21315 120.486 -7.08372 180.082 10.7067 226.297L12.5731 225.578ZM11.1382 228.809C12.4267 228.313 13.0692 226.867 12.5731 225.578L10.7067 226.297C10.8059 226.554 10.6774 226.844 10.4197 226.943L11.1382 228.809ZM7.90693 227.374C8.40295 228.663 9.84962 229.305 11.1382 228.809L10.4197 226.943C10.162 227.042 9.87262 226.914 9.77341 226.656L7.90693 227.374ZM52.3495 13.6423C2.53 119.129 -10.3925 179.838 7.90693 227.374L9.77341 226.656C-8.18896 179.995 4.32196 120.018 54.158 14.4964L52.3495 13.6423ZM52.3786 13.5808L52.3495 13.6423L54.158 14.4964L54.1871 14.4348L52.3786 13.5808ZM52.4555 13.4419L52.421 13.5006L54.1447 14.515L54.1792 14.4564L52.4555 13.4419ZM59.3914 3.35803C57.444 5.51495 55.1558 8.85358 52.4555 13.442L54.1792 14.4563C56.8596 9.90162 59.0663 6.70257 60.8759 4.69829L59.3914 3.35803ZM62.3429 0.805157C61.342 1.39419 60.3612 2.28388 59.3914 3.35803L60.8759 4.69829C61.7798 3.69714 62.6037 2.97231 63.3573 2.52879L62.3429 0.805157ZM65.9962 0.113043C64.616 -0.216005 63.3394 0.218649 62.3429 0.805158L63.3573 2.52879C64.1118 2.08475 64.8456 1.89477 65.5324 2.05852L65.9962 0.113043ZM68.8745 2.37924C68.3129 1.42854 67.4008 0.447925 65.9962 0.113043L65.5324 2.05852C66.2236 2.22331 66.7521 2.71855 67.1525 3.39641L68.8745 2.37924ZM70.0319 5.62155C69.7847 4.45283 69.4291 3.31807 68.8745 2.37924L67.1525 3.39641C67.5501 4.06964 67.8491 4.96636 68.0752 6.03547L70.0319 5.62155ZM70.7236 14.7035C70.7144 11.1003 70.529 7.97135 70.0319 5.62155L68.0752 6.03547C68.5282 8.17663 68.7145 11.1372 68.7237 14.7087L70.7236 14.7035ZM57.0233 78.3909C66.7432 45.3041 70.7614 29.3828 70.7236 14.7035L68.7237 14.7087C68.7605 29.0425 64.8445 44.6716 55.1043 77.8271L57.0233 78.3909ZM49.4883 112.56L57.0403 78.3244L55.0873 77.8936L47.5353 112.129L49.4883 112.56ZM49.4866 112.568L49.4884 112.56L47.5352 112.13L47.5335 112.138L49.4866 112.568ZM49.4822 112.587L49.484 112.579L47.536 112.126L47.5341 112.134L49.4822 112.587ZM44.7383 139.645C44.9547 134.43 46.4219 125.766 49.4822 112.587L47.5341 112.135C44.4727 125.318 42.9649 134.143 42.74 139.562L44.7383 139.645ZM45.1299 144.32C44.869 143.719 44.6272 142.32 44.7383 139.645L42.74 139.562C42.627 142.284 42.8425 144.073 43.2951 145.116L45.1299 144.32ZM45.0448 144.341C45.0656 144.353 45.0862 144.366 45.1062 144.38C45.1257 144.394 45.1425 144.407 45.1567 144.419C45.1851 144.444 45.2009 144.462 45.2061 144.468C45.2157 144.48 45.1838 144.445 45.1299 144.32L43.2951 145.116C43.5184 145.631 43.7814 145.922 44.0501 146.076L45.0448 144.341ZM45.0481 144.343L45.0473 144.343L44.0476 146.075L44.0484 146.075L45.0481 144.343ZM44.7187 144.235C44.6641 144.245 44.6876 144.234 44.7622 144.243C44.8013 144.248 44.8523 144.259 44.911 144.28C44.9402 144.29 44.9686 144.302 44.996 144.316C45.0094 144.322 45.0214 144.328 45.0316 144.334C45.0414 144.339 45.0491 144.344 45.0486 144.344L44.0478 146.075C44.3198 146.232 44.658 146.281 45.0871 146.201L44.7187 144.235ZM47.4539 142.465C45.95 143.752 45.0717 144.169 44.7187 144.235L45.0871 146.201C45.9993 146.03 47.224 145.294 48.7539 143.985L47.4539 142.465ZM52.4792 137.366C50.545 139.538 48.8657 141.258 47.4539 142.465L48.7539 143.985C50.2669 142.691 52.0158 140.893 53.9726 138.697L52.4792 137.366ZM65.0096 122.125C60.258 128.081 56.0343 133.375 52.4792 137.366L53.9726 138.697C57.572 134.656 61.8338 129.313 66.5731 123.373L65.0096 122.125ZM65.0232 122.109L65.0231 122.109L66.5596 123.389L66.5597 123.389L65.0232 122.109ZM65.014 122.12L65.0135 122.12L66.5694 123.377L66.5699 123.377L65.014 122.12ZM65.0112 122.123L65.0111 122.124L66.5728 123.373L66.5729 123.373L65.0112 122.123ZM65.0114 122.123L65.0112 122.123L66.5729 123.373L66.5732 123.372L65.0114 122.123ZM65.7399 121.21L65.0106 122.124L66.574 123.371L67.3032 122.457L65.7399 121.21ZM66.2655 120.551L65.7399 121.21L67.3032 122.458L67.8288 121.799L66.2655 120.551ZM72.9306 112.645C71.0476 114.635 68.8551 117.252 66.2605 120.558L67.8338 121.793C70.4128 118.507 72.5618 115.944 74.3831 114.02L72.9306 112.645ZM78.0263 108.303C76.4635 109.203 74.7911 110.68 72.9306 112.645L74.3831 114.02C76.2005 112.1 77.7144 110.791 79.0244 110.036L78.0263 108.303ZM83.2039 107.493C81.3938 106.909 79.6228 107.384 78.0263 108.303L79.0244 110.036C80.343 109.277 81.5121 109.049 82.5898 109.397L83.2039 107.493ZM86.9305 110.617C86.0692 109.349 84.8983 108.04 83.2039 107.493L82.5898 109.397C83.6458 109.737 84.499 110.597 85.2761 111.741L86.9305 110.617ZM87.0977 110.863L86.9305 110.617L85.2761 111.741L85.4433 111.987L87.0977 110.863ZM87.3101 111.513L87.2496 111.221L85.2914 111.628L85.352 111.92L87.3101 111.513ZM87.9554 114.66C87.7591 113.695 87.546 112.647 87.3101 111.513L85.352 111.92C85.5869 113.05 85.7992 114.093 85.9956 115.059L87.9554 114.66ZM89.1319 120.135C88.7782 118.704 88.4142 116.916 87.9554 114.66L85.9956 115.059C86.4512 117.299 86.8244 119.134 87.1904 120.615L89.1319 120.135ZM89.8216 122.429C89.6072 121.892 89.3831 121.15 89.1319 120.135L87.1904 120.615C87.4499 121.664 87.6998 122.508 87.9643 123.171L89.8216 122.429ZM90.2102 123.177C90.2102 123.177 90.2072 123.174 90.2016 123.167C90.1959 123.16 90.1878 123.15 90.1775 123.136C90.1566 123.107 90.1281 123.065 90.0928 123.005C90.0218 122.883 89.9295 122.699 89.8216 122.429L87.9643 123.171C88.2301 123.836 88.4981 124.285 88.7772 124.572L90.2102 123.177ZM89.8264 123.012C89.8353 123.012 89.9415 123.021 90.064 123.08C90.1705 123.132 90.2218 123.188 90.2102 123.177L88.7772 124.572C88.8745 124.672 89.0104 124.792 89.1944 124.881C89.3943 124.978 89.5707 124.997 89.66 125.005L89.8264 123.012ZM90.3347 122.853C90.1118 122.941 89.9643 122.981 89.8781 122.999C89.7898 123.016 89.7799 123.008 89.8265 123.012L89.6599 125.005C90.0157 125.035 90.4699 124.95 91.0701 124.713L90.3347 122.853ZM95.0724 120.026C92.7395 121.581 91.3084 122.468 90.3347 122.853L91.0701 124.713C92.2817 124.234 93.9011 123.21 96.1818 121.69L95.0724 120.026ZM100.57 116.761C99.1561 117.42 97.365 118.497 95.0724 120.026L96.1818 121.69C98.4554 120.174 100.144 119.166 101.415 118.573L100.57 116.761ZM104.853 116.01C103.378 115.631 101.858 116.16 100.57 116.761L101.415 118.573C102.659 117.993 103.611 117.756 104.355 117.947L104.853 116.01ZM107.686 118.8C107.366 117.941 106.643 116.47 104.853 116.01L104.355 117.947C105.157 118.153 105.552 118.803 105.812 119.499L107.686 118.8ZM108.093 120.142C107.986 119.737 107.855 119.253 107.686 118.8L105.812 119.499C105.943 119.849 106.052 120.245 106.16 120.654L108.093 120.142ZM108.154 120.372L108.094 120.143L106.16 120.653L106.22 120.881L108.154 120.372ZM108.31 120.958C108.257 120.764 108.207 120.573 108.154 120.373L106.22 120.881C106.272 121.079 106.325 121.282 106.382 121.489L108.31 120.958ZM109.693 121.527C109.144 121.25 108.563 120.89 107.95 120.426L106.743 122.021C107.444 122.551 108.127 122.977 108.792 123.312L109.693 121.527ZM116.712 96.4316C113.829 104.306 110.965 113.198 108.285 122.132L110.201 122.707C112.874 113.795 115.725 104.943 118.59 97.1193L116.712 96.4316ZM139.589 42.8951C131.848 59.5762 122.608 80.3286 116.712 96.4316L118.59 97.1193C124.456 81.0999 133.665 60.4115 141.403 43.737L139.589 42.8951ZM149.511 21.9354C146.972 27.1964 143.464 34.5446 139.589 42.8951L141.403 43.737C145.273 35.3978 148.776 28.0589 151.313 22.8048L149.511 21.9354ZM152.52 15.7432C151.809 17.1955 150.781 19.3047 149.511 21.9354L151.313 22.8048C152.581 20.1777 153.607 18.0717 154.316 16.6224L152.52 15.7432ZM153.339 14.0744C153.151 14.4551 152.875 15.0171 152.52 15.7432L154.316 16.6224C154.671 15.8977 154.946 15.3372 155.133 14.9578L153.339 14.0744ZM153.499 13.7489L153.339 14.0741L155.133 14.9581L155.293 14.6329L153.499 13.7489ZM153.552 13.6414L153.5 13.7484L155.293 14.6334L155.346 14.5264L153.552 13.6414ZM153.607 13.5307L153.553 13.641L155.346 14.5268L155.4 14.4165L153.607 13.5307ZM153.621 13.5025L153.607 13.5305L155.4 14.4168L155.414 14.3889L153.621 13.5025ZM153.625 13.4942L153.622 13.5013L155.413 14.3901L155.417 14.3829L153.625 13.4942ZM153.625 13.4939L153.624 13.4957L155.417 14.3815L155.418 14.3796L153.625 13.4939ZM156.31 13.7053C155.638 13.3726 155.302 13.2061 155.133 13.1229C155.049 13.0815 155.006 13.0601 154.983 13.0489C154.973 13.0442 154.962 13.0386 154.952 13.0339C154.949 13.0324 154.944 13.0299 154.937 13.0269C154.932 13.0248 154.917 13.0177 154.896 13.0094C154.886 13.0054 154.866 12.9972 154.839 12.9883C154.82 12.982 154.758 12.9613 154.675 12.9485C154.622 12.9404 154.363 12.8988 154.077 13.0413C153.913 13.1226 153.794 13.2373 153.712 13.3502C153.675 13.401 153.65 13.4455 153.636 13.4734C153.63 13.4842 153.622 13.5006 153.619 13.5061C153.617 13.5116 153.614 13.5172 153.614 13.5172L155.43 14.3563C155.43 14.3563 155.427 14.3619 155.424 14.3674C155.422 14.3729 155.414 14.3892 155.408 14.4001C155.393 14.428 155.369 14.4725 155.332 14.5233C155.25 14.6362 155.13 14.7509 154.967 14.8321C154.681 14.9746 154.421 14.9331 154.369 14.925C154.286 14.9122 154.224 14.8915 154.205 14.8852C154.178 14.8763 154.158 14.8682 154.148 14.8642C154.128 14.8562 154.113 14.8492 154.109 14.8475C154.103 14.8448 154.099 14.8427 154.097 14.8419C154.092 14.8397 154.091 14.8392 154.103 14.8448C154.122 14.8543 154.163 14.8743 154.247 14.916C154.415 14.9988 154.751 15.165 155.423 15.4977L156.31 13.7053ZM158.109 15.7066C158.101 15.7232 158.157 15.6185 158.187 15.4836C158.224 15.3156 158.219 15.1334 158.161 14.9569C158.069 14.6758 157.879 14.5233 157.859 14.5064C157.807 14.4621 157.762 14.4333 157.749 14.4248C157.73 14.4127 157.715 14.4038 157.707 14.3994C157.692 14.3907 157.68 14.3842 157.676 14.3823C157.671 14.3796 157.667 14.3773 157.664 14.3761C157.656 14.3718 157.646 14.3667 157.636 14.3619C157.614 14.3507 157.571 14.3293 157.487 14.2878C157.318 14.2044 156.982 14.0379 156.31 13.7053L155.423 15.4977C156.095 15.8304 156.431 15.9967 156.599 16.0798C156.683 16.1216 156.724 16.1419 156.743 16.1517C156.755 16.1573 156.755 16.1575 156.752 16.1559C156.751 16.1553 156.747 16.1535 156.743 16.1511C156.74 16.1497 156.728 16.1434 156.713 16.1349C156.706 16.1306 156.691 16.1218 156.672 16.1097C156.658 16.1013 156.614 16.0725 156.562 16.0283C156.535 16.0054 156.488 15.9631 156.438 15.9021C156.389 15.8426 156.311 15.734 156.26 15.5778C156.202 15.4013 156.197 15.2191 156.234 15.0511C156.264 14.9163 156.32 14.8115 156.312 14.8282L158.109 15.7066ZM158.108 15.709L158.109 15.7073L156.313 14.8274L156.312 14.8291L158.108 15.709ZM158.102 15.7206L158.105 15.7138L156.314 14.8242L156.311 14.831L158.102 15.7206ZM158.089 15.7461L158.103 15.7188L156.31 14.8328L156.296 14.86L158.089 15.7461ZM158.036 15.8548L158.089 15.7459L156.296 14.8602L156.243 14.969L158.036 15.8548ZM157.825 16.2828C157.918 16.0941 157.988 15.9506 158.036 15.8545L156.242 14.9692C156.195 15.0659 156.124 15.2101 156.03 15.3995L157.825 16.2828ZM157.011 17.9411C157.365 17.2187 157.639 16.6603 157.825 16.2828L156.03 15.3994C155.844 15.7782 155.569 16.338 155.215 17.062L157.011 17.9411ZM154.014 24.109C155.28 21.4872 156.304 19.3861 157.011 17.9412L155.215 17.062C154.506 18.5099 153.48 20.6142 152.213 23.2395L154.014 24.109ZM144.124 44.9998C147.986 36.6775 151.483 29.3528 154.014 24.109L152.213 23.2395C149.679 28.4902 146.177 35.8244 142.31 44.1579L144.124 44.9998ZM121.407 98.1508C127.227 82.2568 136.391 61.6644 144.124 44.9998L142.31 44.1579C134.573 60.8291 125.379 81.4855 119.529 97.4631L121.407 98.1508ZM113.061 123.611C115.725 114.73 118.561 105.922 121.407 98.1508L119.529 97.4631C116.665 105.285 113.816 114.134 111.146 123.036L113.061 123.611ZM115.705 122.041C114.528 122.349 113.392 122.484 112.234 122.332L111.973 124.315C113.462 124.511 114.868 124.327 116.211 123.975L115.705 122.041ZM118.756 120.993C117.699 121.4 116.734 121.771 115.705 122.041L116.211 123.975C117.366 123.673 118.434 123.26 119.476 122.859L118.756 120.993ZM119.657 120.648C119.351 120.763 119.05 120.879 118.756 120.993L119.476 122.859C119.771 122.745 120.064 122.632 120.361 122.52L119.657 120.648ZM124.19 119.606C122.552 119.606 120.952 120.162 119.657 120.648L120.361 122.52C121.662 122.031 122.954 121.606 124.19 121.606V119.606ZM126.69 122.106C126.69 120.725 125.571 119.606 124.19 119.606V121.606C124.467 121.606 124.69 121.83 124.69 122.106H126.69ZM124.19 124.606C125.571 124.606 126.69 123.486 126.69 122.106H124.69C124.69 122.382 124.467 122.606 124.19 122.606V124.606ZM121.416 125.329C122.735 124.833 123.561 124.606 124.19 124.606V122.606C123.156 122.606 122.018 122.966 120.713 123.456L121.416 125.329ZM120.64 125.626C120.913 125.52 121.171 125.421 121.416 125.329L120.713 123.456C120.457 123.552 120.19 123.655 119.919 123.76L120.64 125.626ZM120.634 125.628L120.636 125.627L119.924 123.758L119.922 123.759L120.634 125.628ZM116.971 126.878C118.306 126.528 119.578 126.036 120.638 125.626L119.918 123.761C118.844 124.175 117.674 124.626 116.465 124.943L116.971 126.878ZM111.104 127.217C113.272 127.59 115.247 127.329 116.971 126.878L116.465 124.943C114.921 125.347 113.247 125.556 111.443 125.246L111.104 127.217ZM111.069 127.211L111.103 127.217L111.444 125.246L111.411 125.241L111.069 127.211ZM105.485 150.521C107.465 143.079 109.747 134.811 112.199 126.509L110.281 125.943C107.823 134.267 105.535 142.552 103.553 150.007L105.485 150.521ZM100.351 170.551C101.603 165.476 103.37 158.476 105.485 150.521L103.553 150.007C101.433 157.976 99.6639 164.988 98.4097 170.072L100.351 170.551ZM114.613 165.672C109.345 166.928 104.184 168.154 99.1516 169.338L99.6096 171.285C104.645 170.1 109.808 168.874 115.077 167.617L114.613 165.672ZM140.111 122.725L113.988 166.129L115.702 167.16L141.825 123.756L140.111 122.725ZM140.118 122.712L140.113 122.721L141.822 123.76L141.828 123.751L140.118 122.712ZM144.146 117.31C142.922 118.44 141.599 120.291 140.12 122.71L141.826 123.753C143.294 121.352 144.497 119.708 145.503 118.779L144.146 117.31ZM146.503 115.928C145.541 116.169 144.753 116.749 144.146 117.31L145.503 118.779C146.005 118.316 146.498 117.991 146.99 117.868L146.503 115.928ZM149.653 116.603C148.753 115.889 147.627 115.646 146.503 115.928L146.99 117.868C147.513 117.737 148 117.844 148.411 118.17L149.653 116.603ZM151.167 118.736C150.877 118.044 150.422 117.212 149.653 116.603L148.411 118.17C148.796 118.475 149.088 118.949 149.324 119.511L151.167 118.736ZM151.896 121.186C151.706 120.305 151.474 119.465 151.167 118.736L149.324 119.511C149.563 120.08 149.764 120.786 149.94 121.607L151.896 121.186ZM152.784 127.564C152.534 125.076 152.263 122.895 151.896 121.186L149.94 121.607C150.282 123.198 150.545 125.283 150.794 127.764L152.784 127.564ZM153.274 128.281C153.192 128.19 152.994 127.909 152.702 127.256L150.876 128.072C151.198 128.792 151.497 129.296 151.786 129.618L153.274 128.281ZM153.284 128.293C153.288 128.296 153.284 128.293 153.274 128.281L151.786 129.618C151.829 129.665 151.869 129.707 151.908 129.744L153.284 128.293ZM152.483 127.911C152.278 128.072 152.194 128.102 152.215 128.094L152.977 129.943C153.163 129.866 153.404 129.731 153.715 129.487L152.483 127.911ZM153.988 126.398C153.316 127.162 152.833 127.638 152.483 127.911L153.715 129.487C154.214 129.097 154.795 128.509 155.491 127.718L153.988 126.398ZM157.517 126.17C156.479 125.258 154.9 125.36 153.988 126.398L155.491 127.718C155.673 127.51 155.989 127.49 156.196 127.672L157.517 126.17ZM157.745 129.698C158.656 128.661 158.554 127.081 157.517 126.17L156.196 127.672C156.404 127.854 156.424 128.17 156.242 128.378L157.745 129.698ZM155.563 131.85C156.285 131.285 157.013 130.531 157.745 129.698L156.242 128.378C155.535 129.183 154.905 129.826 154.331 130.275L155.563 131.85ZM152.688 133.038C153.897 132.992 154.877 132.386 155.563 131.85L154.331 130.275C153.765 130.717 153.195 131.017 152.613 131.039L152.688 133.038ZM149.555 131.624C150.258 132.405 151.307 133.09 152.688 133.038L152.613 131.039C151.999 131.062 151.482 130.775 151.043 130.287L149.555 131.624ZM148.022 129.031C148.424 129.972 148.909 130.905 149.555 131.624L151.043 130.287C150.617 129.814 150.236 129.122 149.86 128.244L148.022 129.031ZM147.931 128.819L148.022 129.031L149.86 128.244L149.77 128.032L147.931 128.819ZM147.832 128.295L147.855 128.524L149.845 128.327L149.823 128.097L147.832 128.295ZM147.007 122.237C147.321 123.698 147.576 125.718 147.832 128.295L149.823 128.097C149.566 125.516 149.302 123.398 148.962 121.817L147.007 122.237ZM146.558 120.673C146.696 121.001 146.85 121.507 147.007 122.237L148.962 121.817C148.793 121.026 148.607 120.387 148.402 119.898L146.558 120.673ZM146.436 120.422C146.46 120.463 146.503 120.542 146.558 120.673L148.402 119.898C148.317 119.697 148.232 119.527 148.146 119.386L146.436 120.422ZM147.539 120.983C147.684 120.849 147.781 120.778 147.831 120.746L146.751 119.063C146.58 119.172 146.391 119.32 146.182 119.514L147.539 120.983ZM144.388 125.314C145.84 122.94 146.862 121.608 147.539 120.983L146.182 119.514C145.286 120.341 144.144 121.88 142.682 124.271L144.388 125.314ZM144.386 125.317L144.389 125.313L142.682 124.272L142.679 124.276L144.386 125.317ZM119.79 166.184L144.39 125.312L142.676 124.281L118.077 165.153L119.79 166.184ZM124.236 163.374C122.38 163.818 120.535 164.258 118.701 164.696L119.166 166.641C120.999 166.204 122.845 165.763 124.701 165.319L124.236 163.374ZM124.33 163.351L124.236 163.374L124.701 165.319L124.795 165.297L124.33 163.351ZM124.346 163.348L124.345 163.348L124.779 165.3L124.78 165.3L124.346 163.348ZM124.368 163.342L124.33 163.351L124.796 165.296L124.833 165.287L124.368 163.342ZM124.407 163.333L124.368 163.342L124.833 165.287L124.873 165.278L124.407 163.333ZM124.544 163.3L124.407 163.333L124.872 165.278L125.008 165.246L124.544 163.3ZM136.669 160.406C132.583 161.379 128.538 162.346 124.544 163.3L125.008 165.246C129.003 164.291 133.047 163.325 137.133 162.352L136.669 160.406ZM178.77 150.59C164.516 153.806 150.362 157.144 136.669 160.406L137.133 162.352C150.823 159.09 164.968 155.754 179.211 152.541L178.77 150.59ZM183.238 130.742C181.583 137.46 179.864 144.269 178.023 151.313L179.958 151.818C181.801 144.764 183.523 137.946 185.18 131.221L183.238 130.742ZM184.256 129.982C184.048 129.973 183.842 129.963 183.636 129.953L183.54 131.951C183.746 131.96 183.953 131.97 184.161 131.98L184.256 129.982ZM183.636 129.953L183.234 129.934L183.138 131.931L183.54 131.951L183.636 129.953ZM183.234 129.934C179.249 129.744 175.646 129.591 172.821 130.008L173.113 131.986C175.705 131.604 179.093 131.739 183.138 131.931L183.234 129.934ZM172.821 130.008C169.986 130.426 168.111 131.391 167.333 133.28L169.182 134.042C169.549 133.15 170.501 132.372 173.113 131.986L172.821 130.008ZM167.333 133.28C167.228 133.536 166.936 133.657 166.68 133.552L165.919 135.401C167.195 135.927 168.657 135.318 169.182 134.042L167.333 133.28ZM166.68 133.552C166.425 133.447 166.303 133.155 166.408 132.899L164.559 132.138C164.033 133.415 164.642 134.876 165.919 135.401L166.68 133.552ZM166.408 132.899C167.393 130.507 169.735 129.452 172.675 129.018L172.383 127.04C169.236 127.504 165.959 128.739 164.559 132.138L166.408 132.899ZM172.675 129.018C175.617 128.584 179.326 128.747 183.281 128.935L183.376 126.937C179.479 126.752 175.557 126.572 172.383 127.04L172.675 129.018ZM183.281 128.935L183.619 128.951L183.714 126.953L183.376 126.937L183.281 128.935ZM183.619 128.951C184.04 128.971 184.465 128.991 184.891 129.011L184.984 127.013C184.559 126.994 184.136 126.973 183.714 126.953L183.619 128.951ZM191.941 94.2643C189.262 105.679 186.692 116.628 183.966 127.775L185.909 128.25C188.637 117.093 191.209 106.135 193.888 94.7213L191.941 94.2643ZM191.943 94.2565L191.943 94.2572L193.886 94.7284L193.887 94.7277L191.943 94.2565ZM209.325 23.0512C202.095 51.007 196.836 73.4085 191.941 94.2635L193.888 94.7206C198.783 73.8661 204.037 51.4839 211.261 23.552L209.325 23.0512ZM212.371 21.2568C211.034 20.9111 209.67 21.7145 209.325 23.0512L211.261 23.552C211.33 23.2846 211.603 23.124 211.87 23.1931L212.371 21.2568ZM214.165 24.3031C214.511 22.9664 213.708 21.6025 212.371 21.2568L211.87 23.1931C212.137 23.2623 212.298 23.535 212.229 23.8024L214.165 24.3031ZM196.838 95.2873C201.735 74.4275 206.982 52.0771 214.165 24.3031L212.229 23.8024C205.04 51.6002 199.788 73.9699 194.891 94.8302L196.838 95.2873ZM196.842 95.2656L196.843 95.2647L194.886 94.8527L194.885 94.8536L196.842 95.2656ZM196.838 95.2856L196.838 95.2844L194.89 94.8347L194.889 94.8359L196.838 95.2856ZM188.966 128.373C191.653 117.368 194.195 106.545 196.837 95.2893L194.89 94.8322C192.247 106.089 189.708 116.904 187.023 127.898L188.966 128.373ZM187.962 129.135C190.5 129.216 193.085 129.229 195.622 129.046L195.477 127.051C193.039 127.227 190.532 127.216 188.026 127.136L187.962 129.135ZM195.622 129.046C199.729 128.749 203.65 127.939 206.964 126.098L205.993 124.35C203.036 125.993 199.44 126.765 195.477 127.051L195.622 129.046ZM206.964 126.098C207.206 125.964 207.51 126.051 207.644 126.292L209.392 125.321C208.722 124.114 207.2 123.679 205.993 124.35L206.964 126.098ZM207.644 126.292C207.778 126.534 207.691 126.838 207.45 126.972L208.421 128.72C209.628 128.05 210.063 126.528 209.392 125.321L207.644 126.292ZM207.45 126.972C203.957 128.913 199.874 129.741 195.694 130.043L195.838 132.038C200.163 131.726 204.572 130.859 208.421 128.72L207.45 126.972ZM195.694 130.043C192.915 130.244 190.067 130.213 187.301 130.113L187.229 132.112C190.023 132.213 192.954 132.246 195.838 132.038L195.694 130.043ZM183.25 151.077C185.003 144.339 186.648 137.805 188.236 131.352L186.294 130.874C184.708 137.32 183.065 143.845 181.315 150.574L183.25 151.077ZM289.673 131.104C257.671 133.981 219.601 141.442 182.064 149.85L182.501 151.801C220.024 143.397 257.987 135.96 289.852 133.096L289.673 131.104ZM292.387 133.37C292.263 131.995 291.048 130.98 289.673 131.104L289.852 133.096C290.127 133.071 290.37 133.274 290.395 133.549L292.387 133.37ZM290.121 136.084C291.496 135.96 292.51 134.745 292.387 133.37L290.395 133.549C290.419 133.824 290.217 134.067 289.942 134.092L290.121 136.084ZM181.648 155.068C219.606 146.537 258.006 138.971 290.121 136.084L289.942 134.092C257.688 136.991 219.181 144.583 181.209 153.116L181.648 155.068ZM173.305 187.232C176.715 175.473 179.688 164.653 182.396 154.346L180.462 153.838C177.757 164.129 174.789 174.933 171.385 186.675L173.305 187.232ZM170.208 188.937C171.534 189.321 172.921 188.558 173.305 187.232L171.385 186.675C171.308 186.94 171.03 187.093 170.765 187.016L170.208 188.937ZM168.503 185.839C168.119 187.165 168.882 188.552 170.208 188.937L170.765 187.016C170.5 186.939 170.347 186.662 170.424 186.396L168.503 185.839ZM177.165 154.58C174.575 164.388 171.738 174.684 168.503 185.839L170.424 186.396C173.663 175.225 176.505 164.914 179.098 155.091L177.165 154.58ZM137.828 165.27C151.036 162.123 164.65 158.912 178.352 155.811L177.911 153.86C164.198 156.964 150.575 160.177 137.364 163.324L137.828 165.27ZM125.543 168.202C129.591 167.235 133.69 166.256 137.828 165.27L137.364 163.324C133.225 164.31 129.127 165.29 125.078 166.257L125.543 168.202ZM125.533 168.205L125.542 168.203L125.079 166.257L125.069 166.259L125.533 168.205ZM125.504 168.212L125.533 168.205L125.068 166.259L125.039 166.267L125.504 168.212ZM116.998 170.243C119.806 169.573 122.642 168.896 125.504 168.212L125.039 166.267C122.177 166.95 119.341 167.628 116.534 168.298L116.998 170.243ZM111.622 179.757L117.623 169.786L115.909 168.755L109.908 178.726L111.622 179.757ZM111.609 179.778L111.622 179.757L109.908 178.726L109.896 178.746L111.609 179.778ZM111.58 179.825L111.592 179.805L109.912 178.72L109.9 178.74L111.58 179.825ZM103.144 192.164C105.451 189.147 108.276 184.939 111.58 179.825L109.9 178.74C106.598 183.852 103.81 188.001 101.555 190.949L103.144 192.164ZM99.9534 195.895C100.925 194.94 101.993 193.67 103.144 192.164L101.555 190.949C100.429 192.423 99.4258 193.609 98.5511 194.469L99.9534 195.895ZM96.6898 198.026C97.9497 197.697 99.0655 196.768 99.9534 195.895L98.5511 194.469C97.6946 195.311 96.8994 195.904 96.1852 196.091L96.6898 198.026ZM94.202 197.808C95.0808 198.237 95.9719 198.213 96.6898 198.026L96.1852 196.091C95.8091 196.189 95.4283 196.181 95.0785 196.01L94.202 197.808ZM92.5132 196.086C92.8253 196.704 93.3482 197.392 94.202 197.808L95.0785 196.01C94.7334 195.842 94.4808 195.546 94.298 195.184L92.5132 196.086ZM91.767 192.032C91.7862 193.483 91.9401 194.953 92.5132 196.086L94.298 195.184C93.9437 194.483 93.7854 193.407 93.7668 192.005L91.767 192.032ZM93.4036 178.036C92.2951 184.355 91.7267 188.994 91.767 192.032L93.7668 192.005C93.7293 189.173 94.2657 184.697 95.3735 178.382L93.4036 178.036ZM93.4108 177.995L93.4036 178.036L95.3735 178.382L95.3807 178.341L93.4108 177.995ZM93.4315 177.9L93.422 177.941L95.3696 178.395L95.3791 178.355L93.4315 177.9ZM96.0933 177.494L94.6325 177.154L94.178 179.101L95.6387 179.442L96.0933 177.494ZM93.4353 177.884C93.4353 177.884 93.4337 177.891 93.4322 177.897C93.4307 177.903 93.4265 177.922 93.4239 177.935C93.4174 177.968 93.4087 178.022 93.4061 178.089C93.4005 178.239 93.4281 178.407 93.5102 178.572C93.6496 178.852 93.875 178.976 93.9125 178.997C93.9808 179.036 94.0384 179.057 94.0558 179.064C94.0803 179.073 94.1 179.079 94.1097 179.082C94.1293 179.088 94.1449 179.092 94.1494 179.093C94.1561 179.095 94.1615 179.097 94.1646 179.097C94.1748 179.1 94.1869 179.103 94.1973 179.105C94.2219 179.111 94.269 179.122 94.36 179.143C94.5429 179.186 94.9084 179.272 95.6387 179.442L96.0933 177.494C95.3628 177.324 94.998 177.239 94.8158 177.196C94.7242 177.175 94.6801 177.164 94.659 177.159C94.6467 177.156 94.6473 177.157 94.6519 177.158C94.6535 177.158 94.6579 177.159 94.6638 177.161C94.6675 177.162 94.6826 177.166 94.7018 177.172C94.7113 177.175 94.7309 177.181 94.7553 177.19C94.7726 177.196 94.8301 177.218 94.8984 177.257C94.9359 177.278 95.1613 177.401 95.3006 177.681C95.3828 177.846 95.4104 178.015 95.4047 178.164C95.4022 178.231 95.3934 178.285 95.3869 178.318C95.3843 178.331 95.3801 178.35 95.3787 178.356C95.3771 178.363 95.3756 178.369 95.3756 178.369L93.4353 177.884ZM93.4319 177.898L93.4315 177.9L95.3793 178.354L95.3797 178.352L93.4319 177.898ZM93.4337 177.891L93.4321 177.897L95.3796 178.352L95.3813 178.345L93.4337 177.891ZM93.4401 177.863L93.4338 177.89L95.3812 178.346L95.3876 178.318L93.4401 177.863ZM93.4654 177.755L93.4403 177.862L95.3874 178.319L95.4126 178.212L93.4654 177.755ZM93.5647 177.333C93.521 177.519 93.4878 177.66 93.4655 177.755L95.4125 178.212C95.4347 178.118 95.4676 177.977 95.5112 177.793L93.5647 177.333ZM93.9507 175.711C93.7818 176.417 93.6522 176.963 93.5647 177.333L95.5112 177.793C95.5982 177.425 95.7273 176.88 95.8958 176.176L93.9507 175.711ZM94.0131 175.45L93.9508 175.711L95.8958 176.176L95.9581 175.916L94.0131 175.45ZM94.119 175.009C94.0823 175.162 94.047 175.309 94.0131 175.45L95.9581 175.916C95.9919 175.775 96.027 175.629 96.0636 175.476L94.119 175.009ZM94.3349 174.113C94.2583 174.43 94.1863 174.729 94.119 175.009L96.0636 175.476C96.1308 175.197 96.2026 174.899 96.279 174.582L94.3349 174.113ZM68.4907 181.417C76.8929 179.619 85.9649 177.556 95.5343 175.321L95.0796 173.374C85.5162 175.607 76.4574 177.667 68.0721 179.461L68.4907 181.417ZM21.6594 188.531C32.0483 188.531 48.4977 185.696 68.4907 181.417L68.0721 179.461C48.0525 183.746 31.8045 186.531 21.6594 186.531V188.531ZM19.1594 186.031C19.1594 187.412 20.2787 188.531 21.6594 188.531V186.531C21.3832 186.531 21.1594 186.307 21.1594 186.031H19.1594ZM21.6594 183.531C20.2787 183.531 19.1594 184.651 19.1594 186.031H21.1594C21.1594 185.755 21.3832 185.531 21.6594 185.531V183.531ZM67.4444 176.528C47.3844 180.821 31.4386 183.531 21.6594 183.531V185.531C31.6826 185.531 47.8298 182.771 67.8629 178.484L67.4444 176.528ZM95.8741 170.107C85.7805 172.47 76.2408 174.645 67.4444 176.528L67.8629 178.484C76.677 176.597 86.2305 174.418 96.3299 172.054L95.8741 170.107ZM95.415 169.686C95.317 170.084 95.2222 170.47 95.1307 170.843L97.0732 171.319C97.1645 170.947 97.2591 170.562 97.357 170.164L95.415 169.686ZM100.653 149.236C98.4816 157.401 96.6769 164.564 95.415 169.686L97.357 170.164C98.6166 165.051 100.418 157.901 102.586 149.75L100.653 149.236ZM107.417 125.047C104.942 133.427 102.642 141.758 100.653 149.236L102.586 149.75C104.572 142.284 106.867 133.972 109.335 125.614L107.417 125.047ZM104.472 124.053C105.641 124.994 106.804 125.714 107.962 126.241L108.79 124.42C107.799 123.97 106.778 123.342 105.726 122.495L104.472 124.053ZM104.109 123.762L104.472 124.053L105.726 122.495L105.363 122.204L104.109 123.762ZM103.645 122.825L103.779 123.27L105.694 122.695L105.56 122.25L103.645 122.825ZM103.315 121.629C103.406 121.976 103.515 122.392 103.645 122.825L105.56 122.25C105.442 121.855 105.341 121.471 105.249 121.121L103.315 121.629ZM103.314 121.629L103.315 121.631L105.249 121.12L105.248 121.118L103.314 121.629ZM103.295 121.538L103.295 121.538L105.268 121.209L105.268 121.209L103.295 121.538ZM103.259 121.42L103.314 121.628L105.248 121.119L105.194 120.911L103.259 121.42ZM103.001 120.548C103.074 120.742 103.15 121.006 103.26 121.421L105.193 120.91C105.085 120.499 104.987 120.147 104.875 119.849L103.001 120.548ZM102.938 120.397C102.929 120.382 102.953 120.419 103.001 120.548L104.875 119.849C104.799 119.645 104.726 119.488 104.653 119.368L102.938 120.397ZM103.723 120.899C103.812 120.88 103.839 120.881 103.818 120.882L103.774 118.882C103.643 118.885 103.484 118.904 103.29 118.947L103.723 120.899ZM102.683 121.292C103.209 121.047 103.539 120.94 103.723 120.899L103.29 118.947C102.912 119.031 102.437 119.2 101.838 119.479L102.683 121.292ZM97.8459 124.186C100.091 122.689 101.626 121.785 102.683 121.292L101.838 119.479C100.638 120.039 99.0007 121.012 96.7365 122.522L97.8459 124.186ZM92.1732 127.503C93.7402 126.883 95.6393 125.657 97.8459 124.186L96.7365 122.522C94.481 124.025 92.768 125.117 91.4378 125.643L92.1732 127.503ZM89.4101 127.994C90.4153 128.078 91.364 127.823 92.1732 127.503L91.4378 125.643C90.7679 125.908 90.1489 126.049 89.5767 126.001L89.4101 127.994ZM86.6279 126.665C87.3645 127.421 88.3068 127.902 89.4101 127.994L89.5767 126.001C88.9854 125.952 88.4839 125.704 88.0608 125.269L86.6279 126.665ZM85.1783 124.283C85.5105 125.115 85.9565 125.975 86.6279 126.665L88.0608 125.269C87.6509 124.848 87.3236 124.262 87.0357 123.542L85.1783 124.283ZM84.2781 121.335C84.5503 122.436 84.8388 123.433 85.1783 124.283L87.0357 123.542C86.7461 122.817 86.4834 121.921 86.2196 120.855L84.2781 121.335ZM83.0401 115.581C83.5035 117.859 83.8963 119.791 84.2781 121.335L86.2196 120.855C85.8501 119.36 85.4665 117.476 85 115.182L83.0401 115.581ZM83.0402 115.581L83.0407 115.584L84.9995 115.18L84.999 115.177L83.0402 115.581ZM82.4772 112.831C82.6778 113.8 82.864 114.715 83.0397 115.579L84.9995 115.18C84.824 114.317 84.6371 113.398 84.4356 112.426L82.4772 112.831ZM81.6686 112.252C81.7559 112.28 82.0829 112.435 82.6461 113.214L84.2668 112.043C83.6029 111.124 82.9631 110.568 82.2827 110.348L81.6686 112.252ZM80.5217 112.636C80.9726 112.376 81.2642 112.284 81.4344 112.253C81.5885 112.225 81.6512 112.246 81.6686 112.252L82.2827 110.348C81.5716 110.119 80.7036 110.223 79.5235 110.903L80.5217 112.636ZM76.5618 116.083C78.3151 114.23 79.5913 113.172 80.5217 112.636L79.5235 110.903C78.3399 111.585 76.9052 112.81 75.1094 114.708L76.5618 116.083ZM70.1903 123.649C72.7474 120.391 74.8322 117.91 76.5618 116.083L75.1094 114.708C73.318 116.6 71.1897 119.136 68.617 122.414L70.1903 123.649ZM70.1801 123.662L70.1878 123.652L68.6195 122.411L68.6118 122.421L70.1801 123.662ZM68.9036 125.262C69.3249 124.734 69.7496 124.201 70.1775 123.665L68.6144 122.418C68.1863 122.954 67.7614 123.487 67.3401 124.015L68.9036 125.262ZM56.2127 140.692C59.8698 136.587 64.1839 131.178 68.9036 125.262L67.3401 124.015C62.6083 129.946 58.3322 135.306 54.7193 139.362L56.2127 140.692ZM50.7038 146.265C52.3686 144.841 54.2218 142.927 56.2127 140.692L54.7193 139.362C52.7511 141.571 50.9675 143.408 49.4039 144.745L50.7038 146.265ZM45.6396 149.149C47.3872 148.822 49.1289 147.612 50.7038 146.265L49.4039 144.745C47.8593 146.066 46.4621 146.96 45.2712 147.184L45.6396 149.149ZM42.5578 148.679C43.5798 149.265 44.6744 149.33 45.6396 149.149L45.2712 147.184C44.6565 147.299 44.0695 147.24 43.5526 146.944L42.5578 148.679ZM40.543 146.31C40.9346 147.213 41.5615 148.108 42.5578 148.679L43.5526 146.944C43.0406 146.65 42.6566 146.157 42.3778 145.514L40.543 146.31ZM39.7426 139.437C39.6266 142.233 39.8036 144.606 40.543 146.31L42.3778 145.514C41.8295 144.251 41.6269 142.266 41.7409 139.52L39.7426 139.437ZM44.6099 111.464C41.5481 124.651 39.9802 133.713 39.7426 139.437L41.7409 139.52C41.97 134 43.4974 125.098 46.5581 111.917L44.6099 111.464ZM44.6118 111.456L44.6099 111.464L46.5581 111.917L46.56 111.908L44.6118 111.456ZM52.1688 77.1971L44.6094 111.467L46.5624 111.898L54.1218 77.6279L52.1688 77.1971ZM52.1799 77.1468L52.1688 77.1971L54.1219 77.6279L54.1329 77.5776L52.1799 77.1468ZM52.2115 77.0309L52.197 77.0803L54.1159 77.6441L54.1304 77.5947L52.2115 77.0309ZM65.7237 14.7164C65.7592 28.5389 61.9929 43.7373 52.2115 77.0309L54.1304 77.5947C63.8913 44.3706 67.7601 28.8795 67.7237 14.7112L65.7237 14.7164ZM65.1402 6.65634C65.5269 8.48429 65.7146 11.1921 65.7237 14.7164L67.7237 14.7112C67.7145 11.1556 67.5277 8.27923 67.0969 6.24243L65.1402 6.65634ZM64.5694 4.92215C64.7315 5.19647 64.9454 5.7357 65.1402 6.65634L67.0969 6.24243C66.8812 5.22303 66.6107 4.44537 66.2915 3.905L64.5694 4.92215ZM64.5056 4.81837C64.4838 4.79977 64.4812 4.79376 64.4944 4.81003C64.5071 4.82583 64.5332 4.86081 64.5694 4.92216L66.2915 3.90499C66.1332 3.63702 65.9691 3.43794 65.8036 3.29676L64.5056 4.81837ZM64.845 4.97869C64.8452 4.97874 64.8431 4.97826 64.8405 4.97765C64.8378 4.97699 64.8342 4.97614 64.83 4.97511C64.8215 4.97301 64.8119 4.97051 64.8013 4.96754C64.78 4.96155 64.7585 4.95468 64.7369 4.94688C64.6938 4.93131 64.6562 4.91406 64.6242 4.89709C64.5617 4.86391 64.5222 4.83253 64.5056 4.81837L65.8035 3.29676C65.651 3.16665 65.4827 3.07309 65.2928 3.02947L64.845 4.97869ZM64.8392 4.97733L64.8395 4.97741L65.2983 3.03074L65.298 3.03066L64.8392 4.97733ZM64.8475 4.97925L64.8476 4.97927L65.2895 3.02871L65.2894 3.02869L64.8475 4.97925ZM65.1329 4.99162C65.128 4.99275 65.0943 4.99998 65.0377 5.00052C65.0091 5.0008 64.9752 4.99935 64.9369 4.99473C64.9177 4.99241 64.8983 4.98941 64.8789 4.98574C64.8692 4.98391 64.8601 4.98204 64.8518 4.98021C64.8478 4.97931 64.8442 4.97849 64.8412 4.97781C64.8384 4.97715 64.8362 4.97661 64.8363 4.97666L65.3006 3.03129C65.1264 2.98971 64.9259 2.98777 64.6904 3.04119L65.1329 4.99162ZM64.879 5.11425C65.0607 5.00729 65.1422 4.98951 65.1329 4.99162L64.6904 3.04119C64.4519 3.0953 64.1776 3.20637 63.8645 3.39061L64.879 5.11425ZM63.1026 6.70868C63.9081 5.8165 64.4967 5.33925 64.879 5.11425L63.8645 3.39061C63.2346 3.76134 62.4891 4.40371 61.6181 5.36842L63.1026 6.70868ZM56.7989 15.9198C59.4336 11.4475 61.5069 8.47612 63.1026 6.70868L61.6181 5.36842C59.885 7.28812 57.7302 10.3987 55.0757 14.9046L56.7989 15.9198ZM154.079 14.8323L155.423 15.4977L156.31 13.7053L154.966 13.0399L154.079 14.8323ZM156.975 12.3609C155.738 11.7484 154.238 12.2551 153.626 13.4925L155.418 14.3797C155.541 14.1322 155.841 14.0309 156.088 14.1534L156.975 12.3609ZM158.107 15.7105C158.72 14.4731 158.213 12.9734 156.975 12.3609L156.088 14.1534C156.336 14.2759 156.437 14.5758 156.315 14.8233L158.107 15.7105ZM155.423 15.4977L156.767 16.1631L157.654 14.3707L156.31 13.7053L155.423 15.4977ZM98.8134 176.874C99.0079 176.061 99.2553 175.034 99.5512 173.818L97.6078 173.345C97.3113 174.564 97.0634 175.594 96.8683 176.409L98.8134 176.874ZM98.4308 178.483C98.5172 178.117 98.6457 177.576 98.8134 176.874L96.8684 176.409C96.7001 177.112 96.5712 177.656 96.4844 178.023L98.4308 178.483ZM98.3805 178.696L98.4309 178.483L96.4843 178.023L96.4339 178.237L98.3805 178.696ZM98.333 178.898L98.3806 178.696L96.4337 178.238L96.3862 178.44L98.333 178.898ZM98.3098 178.997L98.3332 178.897L96.386 178.441L96.3626 178.541L98.3098 178.997ZM96.7666 191.966C96.7332 189.447 97.2193 185.229 98.3212 178.942L96.3512 178.596C95.2487 184.887 94.7306 189.268 94.7667 191.992L96.7666 191.966ZM96.9433 193.735C96.8727 193.488 96.7796 192.947 96.7666 191.966L94.7667 191.992C94.7809 193.062 94.8816 193.8 95.0207 194.286L96.9433 193.735ZM96.4477 192.33C95.9524 192.817 95.6277 193.055 95.4608 193.157L96.5033 194.864C96.8401 194.658 97.2849 194.312 97.85 193.756L96.4477 192.33ZM99.1722 189.127C98.0817 190.553 97.1769 191.613 96.4477 192.33L97.85 193.756C98.6762 192.944 99.6463 191.8 100.761 190.342L99.1722 189.127ZM107.367 177.132C104.073 182.231 101.345 186.285 99.1722 189.127L100.761 190.342C102.986 187.431 105.751 183.318 109.047 178.217L107.367 177.132ZM111.821 169.729L107.35 177.159L109.064 178.19L113.535 170.761L111.821 169.729ZM98.808 174.555C103.406 173.475 108.113 172.36 112.91 171.218L112.446 169.272C107.651 170.414 102.947 171.529 98.351 172.608L98.808 174.555ZM104.722 120.075C104.652 120.347 104.449 120.633 104.102 120.762C103.827 120.865 103.594 120.816 103.507 120.794C103.328 120.749 103.207 120.662 103.187 120.649C103.111 120.597 103.061 120.546 103.048 120.532C103.007 120.492 102.981 120.458 102.97 120.443L104.568 119.241C104.548 119.213 104.514 119.17 104.468 119.124C104.452 119.108 104.399 119.055 104.322 119.002C104.302 118.988 104.181 118.902 104 118.856C103.914 118.834 103.68 118.786 103.405 118.888C103.058 119.017 102.855 119.303 102.785 119.576L104.722 120.075ZM104.403 119.069C104.433 119.093 104.469 119.126 104.508 119.17C104.525 119.19 104.557 119.227 104.591 119.279C104.606 119.302 104.638 119.353 104.669 119.424C104.685 119.459 104.71 119.523 104.729 119.606C104.744 119.673 104.779 119.854 104.721 120.078L102.786 119.573C102.728 119.796 102.763 119.978 102.778 120.045C102.797 120.129 102.823 120.193 102.838 120.228C102.869 120.299 102.902 120.351 102.918 120.375C102.953 120.429 102.987 120.469 103.006 120.491C103.05 120.541 103.095 120.582 103.135 120.615L104.403 119.069ZM151.655 128.992C151.673 128.733 151.796 128.469 152.026 128.284C152.223 128.126 152.424 128.085 152.523 128.072C152.71 128.048 152.856 128.084 152.883 128.091C152.975 128.113 153.043 128.143 153.056 128.149C153.101 128.169 153.135 128.188 153.145 128.194C153.175 128.211 153.197 128.226 153.209 128.234L152.081 129.885C152.098 129.897 152.123 129.914 152.155 129.932C152.167 129.939 152.202 129.958 152.248 129.978C152.261 129.984 152.329 130.015 152.421 130.037C152.448 130.043 152.594 130.08 152.782 130.055C152.88 130.042 153.081 130.001 153.278 129.844C153.509 129.658 153.631 129.395 153.65 129.135L151.655 128.992ZM152.201 129.956C152.182 129.946 152.156 129.932 152.125 129.914C152.113 129.906 152.086 129.889 152.053 129.864C152.04 129.855 152.002 129.826 151.959 129.784C151.94 129.766 151.891 129.718 151.839 129.646C151.814 129.611 151.768 129.542 151.728 129.447C151.694 129.363 151.625 129.166 151.664 128.912L153.64 129.216C153.68 128.961 153.611 128.765 153.576 128.681C153.536 128.585 153.49 128.517 153.465 128.481C153.413 128.409 153.364 128.361 153.345 128.343C153.302 128.301 153.264 128.272 153.251 128.262C153.217 128.238 153.189 128.22 153.175 128.211C153.143 128.191 153.113 128.175 153.089 128.163L152.201 129.956Z" fill="#4E4E4E"/>
</svg>
