<svg width="290" height="228" viewBox="0 0 290 228" fill="none" xmlns="http://www.w3.org/2000/svg">
<path fill-rule="evenodd" clip-rule="evenodd" d="M55.5027 15.3104C6.09019 119.949 -5.8974 178.68 11.5753 224.069C11.8729 224.842 11.4875 225.71 10.7144 226.008C9.94123 226.306 9.07323 225.92 8.77561 225.147C-9.20618 178.435 3.40705 118.592 52.8191 13.9675L52.8482 13.906L52.8827 13.8473C55.5507 9.31368 57.78 6.07123 59.6437 4.00703C60.5731 2.97759 61.4689 2.17602 62.3404 1.66315C63.2101 1.15127 64.2103 0.840039 65.2395 1.08541C66.2832 1.33423 66.9998 2.06901 67.4778 2.87823C67.9509 3.6792 68.2759 4.68796 68.5107 5.79816C68.982 8.02622 69.1663 11.0466 69.1755 14.6042C69.2124 28.9919 65.2778 44.6373 55.6292 77.4815L48.1403 111.431L48.1385 111.439L48.1366 111.447C45.1013 124.519 43.6264 133.189 43.4077 138.46C43.2966 141.136 43.5235 142.714 43.8761 143.527C44.0391 143.903 44.1768 143.993 44.203 144.008C44.2138 144.014 44.2903 144.063 44.5469 144.015C45.1708 143.898 46.2113 143.329 47.7154 142.042C49.165 140.802 50.8643 139.058 52.7935 136.893C56.3409 132.91 60.5485 127.636 65.2549 121.737C65.6659 121.221 66.0808 120.701 66.4993 120.177C69.0644 116.909 71.2172 114.341 73.0543 112.4C74.8781 110.473 76.459 109.091 77.885 108.269C79.3321 107.436 80.7937 107.086 82.2301 107.549C83.5978 107.991 84.6034 109.069 85.4163 110.265L85.5835 110.511L85.6441 110.803C85.8772 111.924 86.0879 112.96 86.2824 113.916L86.2832 113.92L86.2833 113.92C86.7366 116.149 87.102 117.946 87.4588 119.388C87.712 120.412 87.9469 121.198 88.184 121.792C88.4256 122.397 88.6319 122.704 88.7771 122.853C88.8831 122.962 88.9401 122.976 89.0166 122.982C89.1516 122.994 89.4363 122.968 89.9621 122.76C91.0442 122.332 92.5555 121.385 94.8434 119.86C97.1076 118.351 98.8335 117.316 100.166 116.695C101.422 116.109 102.651 115.728 103.755 116.012C105.047 116.344 105.603 117.4 105.891 118.172C106.04 118.571 106.159 119.008 106.266 119.411L106.326 119.639C106.377 119.835 106.429 120.029 106.483 120.226C107.128 120.713 107.748 121.1 108.345 121.402C110.998 112.558 113.83 103.765 116.679 95.9848C122.511 80.057 131.658 59.5091 139.333 42.9703C143.174 34.695 146.65 27.4127 149.167 22.1989C150.426 19.592 151.444 17.5019 152.148 16.0632C152.5 15.3438 152.774 14.7873 152.959 14.4103L153.097 14.1305L153.171 13.9817L153.225 13.8724L153.238 13.8447L153.242 13.8376L153.243 13.8358C153.243 13.8354 153.243 13.8352 154.587 14.5006C155.932 15.166 155.932 15.1661 155.931 15.1664L155.931 15.1681L155.927 15.1748L155.914 15.2018L155.861 15.3097L155.651 15.7354C155.466 16.1103 155.194 16.6648 154.843 17.3819C154.141 18.8163 153.125 20.9015 151.869 23.5031C149.357 28.7065 145.887 35.9748 142.055 44.2332C134.384 60.762 125.282 81.214 119.496 97.0163C116.667 104.744 113.849 113.493 111.206 122.306C112.511 122.475 113.765 122.317 115.008 121.991C116.091 121.707 117.098 121.319 118.138 120.918L118.138 120.918C118.43 120.805 118.725 120.692 119.025 120.579C120.312 120.096 121.748 119.608 123.175 119.608C124.004 119.608 124.675 120.28 124.675 121.108C124.675 121.937 124.004 122.608 123.175 122.608C122.353 122.608 121.381 122.899 120.08 123.387C119.831 123.481 119.571 123.581 119.301 123.686L119.301 123.686C118.242 124.094 117.03 124.562 115.768 124.893C114.147 125.318 112.336 125.551 110.364 125.212L110.342 125.208C107.909 133.448 105.644 141.652 103.68 149.035C101.583 156.92 99.832 163.86 98.5897 168.895C103.574 167.722 108.685 166.508 113.9 165.265L139.802 122.227L139.808 122.218C141.269 119.828 142.522 118.094 143.629 117.071C144.179 116.563 144.817 116.113 145.54 115.932C146.361 115.726 147.164 115.9 147.818 116.418C148.392 116.873 148.763 117.523 149.025 118.146C149.296 118.79 149.511 119.558 149.692 120.402C150.044 122.038 150.309 124.154 150.556 126.616C150.86 127.296 151.105 127.683 151.288 127.887C151.311 127.912 151.331 127.933 151.347 127.948C151.429 127.913 151.587 127.831 151.835 127.637C152.256 127.308 152.783 126.782 153.46 126.011C154.007 125.388 154.955 125.327 155.577 125.874C156.2 126.42 156.261 127.368 155.714 127.991C155 128.803 154.327 129.497 153.683 130C153.062 130.486 152.291 130.937 151.398 130.971C150.405 131.008 149.625 130.524 149.057 129.892C148.524 129.3 148.094 128.493 147.708 127.59L147.617 127.378L147.595 127.149C147.341 124.591 147.083 122.541 146.759 121.033C146.597 120.279 146.429 119.712 146.259 119.308C146.19 119.143 146.128 119.025 146.079 118.942C145.972 119.012 145.834 119.119 145.665 119.275C144.886 119.994 143.814 121.416 142.37 123.779L142.367 123.783L117.989 164.289C119.828 163.849 121.68 163.407 123.543 162.962C127.572 161.999 131.654 161.024 135.777 160.041C149.352 156.808 163.381 153.499 177.508 150.312C179.333 143.33 181.037 136.58 182.677 129.921C182.476 129.912 182.276 129.902 182.077 129.893L181.678 129.874C177.696 129.684 174.232 129.541 171.547 129.938C168.847 130.336 167.452 131.199 166.887 132.572C166.571 133.338 165.695 133.703 164.928 133.388C164.162 133.072 163.797 132.195 164.113 131.429C165.298 128.552 168.09 127.415 171.109 126.97C174.143 126.522 177.928 126.692 181.821 126.877L182.156 126.893C182.571 126.913 182.987 126.933 183.406 126.952C186.109 115.897 188.658 105.038 191.314 93.7227L191.314 93.7224L191.314 93.7221C196.169 73.0415 201.381 50.8363 208.547 23.125C208.755 22.3229 209.573 21.8409 210.375 22.0483C211.177 22.2558 211.659 23.0741 211.452 23.8761C204.326 51.4296 199.12 73.6031 194.264 94.2891L194.263 94.2897L194.263 94.2913C191.644 105.448 189.126 116.173 186.463 127.076C188.958 127.155 191.477 127.167 193.938 126.989C197.939 126.7 201.664 125.916 204.771 124.189C205.495 123.787 206.409 124.048 206.811 124.772C207.213 125.496 206.952 126.409 206.228 126.812C202.585 128.836 198.373 129.676 194.155 129.981C191.35 130.184 188.488 130.152 185.733 130.053C184.162 136.439 182.534 142.905 180.8 149.572C218.011 141.237 255.703 133.853 287.365 131.007C288.19 130.932 288.919 131.541 288.994 132.366C289.068 133.191 288.459 133.92 287.634 133.995C255.721 136.863 217.592 144.378 179.946 152.838C177.263 163.049 174.318 173.768 170.94 185.418C170.71 186.214 169.878 186.672 169.082 186.441C168.286 186.211 167.828 185.378 168.059 184.583C171.267 173.52 174.081 163.309 176.649 153.582C163.063 156.657 149.565 159.841 136.472 162.96C132.359 163.94 128.285 164.913 124.261 165.875L124.25 165.877L124.249 165.877L124.183 165.893L124.175 165.895C121.365 166.567 118.579 167.232 115.821 167.891L109.873 177.774L109.86 177.794L109.847 177.814C106.572 182.885 103.789 187.029 101.527 189.987C100.397 191.465 99.3702 192.683 98.4541 193.584C97.589 194.435 96.6395 195.191 95.6572 195.448C95.1126 195.59 94.4788 195.598 93.8663 195.299C93.2687 195.008 92.8825 194.517 92.6363 194.03C92.1751 193.118 92.0203 191.852 92.0016 190.438C91.963 187.526 92.511 183.006 93.6099 176.741L93.6171 176.7L93.6266 176.66L95.0873 177.001C93.6266 176.66 93.6267 176.659 93.6268 176.659L93.6272 176.657L93.6288 176.65L93.6351 176.623L93.66 176.517L93.7012 176.342L93.7582 176.1C93.8447 175.734 93.973 175.193 94.1403 174.494C94.2492 174.039 94.3747 173.516 94.516 172.931C85.0366 175.144 76.0535 177.187 67.7354 178.967C47.8961 183.213 31.6825 186.001 21.4996 186.001C20.6712 186.001 19.9996 185.329 19.9996 184.501C19.9996 183.672 20.6712 183.001 21.4996 183.001C31.3167 183.001 47.2281 180.288 67.1076 176.034C75.8372 174.166 85.3016 172.007 95.311 169.664C95.401 169.297 95.4943 168.917 95.5909 168.526C96.8411 163.451 98.6292 156.354 100.781 148.264C102.751 140.857 105.028 132.609 107.478 124.313C106.415 123.828 105.334 123.161 104.235 122.277L103.873 121.985L103.739 121.54C103.616 121.129 103.511 120.731 103.42 120.386L103.42 120.385L103.42 120.385L103.366 120.179C103.258 119.769 103.171 119.465 103.08 119.221C103.022 119.063 102.975 118.969 102.944 118.916C102.89 118.918 102.8 118.926 102.667 118.956C102.389 119.018 101.991 119.154 101.434 119.414C100.315 119.935 98.7434 120.866 96.5075 122.356C94.2954 123.831 92.5032 124.981 91.0652 125.55C90.331 125.84 89.5516 126.037 88.7667 125.972C87.9233 125.901 87.2047 125.539 86.6277 124.946C86.0899 124.394 85.7058 123.675 85.398 122.904C85.0858 122.123 84.8123 121.184 84.5465 120.109C84.1739 118.602 83.789 116.709 83.328 114.443L83.3279 114.443L83.3259 114.433C83.1523 113.58 82.968 112.674 82.7695 111.715C82.1625 110.876 81.6856 110.526 81.3089 110.404C80.9674 110.294 80.4077 110.278 79.3822 110.869C78.3356 111.472 76.9925 112.603 75.233 114.462C73.4876 116.306 71.3989 118.794 68.8554 122.034L68.8478 122.044C68.4233 122.576 68.002 123.104 67.5841 123.628C62.8979 129.502 58.6385 134.841 55.0336 138.888C53.0704 141.092 51.2667 142.952 49.6653 144.322C48.1184 145.645 46.5599 146.69 45.0994 146.964C44.3138 147.111 43.4769 147.05 42.7107 146.61C41.9598 146.18 41.4571 145.489 41.1239 144.721C40.4842 143.247 40.2962 141.084 40.4102 138.336C40.6417 132.759 42.1768 123.851 45.2125 110.777L45.2143 110.769L52.7107 76.785L52.7218 76.7347L52.7363 76.6853C62.4261 43.7034 66.2111 28.4885 66.1755 14.612C66.1664 11.1017 65.9807 8.33399 65.5757 6.41903C65.3723 5.45773 65.1324 4.80627 64.8948 4.40398C64.78 4.20959 64.6844 4.10577 64.6239 4.0541C64.5716 4.00951 64.5469 4.00428 64.544 4.00367L64.5438 4.00362L64.5436 4.00358C64.5394 4.00257 64.4976 3.99245 64.3939 4.01596C64.2818 4.0414 64.1065 4.1047 63.862 4.2486C63.3617 4.54307 62.7012 5.09718 61.8704 6.01742C60.2207 7.8446 58.125 10.8592 55.5027 15.3104ZM154.587 14.5006L153.243 13.8352C153.611 13.0927 154.51 12.7887 155.253 13.1562C155.995 13.5237 156.299 14.4235 155.932 15.166L154.587 14.5006ZM97.7885 172.165C97.4956 173.369 97.2507 174.387 97.0579 175.192C96.8913 175.888 96.7637 176.426 96.6778 176.79L96.6225 177.024L96.5807 177.202L96.5575 177.301C95.4645 183.538 94.9669 187.8 95.0013 190.398C95.0146 191.401 95.1082 192.03 95.2099 192.393C95.4584 192.24 95.8347 191.952 96.3507 191.445C97.1213 190.687 98.0506 189.595 99.1438 188.165C101.324 185.313 104.047 181.264 107.314 176.207L111.733 168.865C106.99 169.994 102.336 171.097 97.7885 172.165ZM102.9 118.856C102.9 118.854 102.906 118.859 102.915 118.872C102.905 118.863 102.9 118.857 102.9 118.856ZM151.4 127.993C151.403 127.996 151.405 127.997 151.405 127.997C151.406 127.997 151.405 127.997 151.405 127.997L151.404 127.996L151.4 127.993Z" fill="black"/>
<path d="M11.5753 224.069L10.6421 224.428L10.6421 224.428L11.5753 224.069ZM55.5027 15.3104L54.6411 14.8028L54.6179 14.8421L54.5984 14.8833L55.5027 15.3104ZM10.7144 226.008L10.3551 225.075L10.3551 225.075L10.7144 226.008ZM8.77561 225.147L7.84237 225.506L7.84237 225.506L8.77561 225.147ZM52.8191 13.9675L51.9149 13.5405L51.9149 13.5405L52.8191 13.9675ZM52.8482 13.906L51.9864 13.3988L51.9633 13.4379L51.944 13.4789L52.8482 13.906ZM52.8827 13.8473L52.0209 13.3401L52.0209 13.3402L52.8827 13.8473ZM59.6437 4.00703L58.9014 3.3369L58.9014 3.3369L59.6437 4.00703ZM62.3404 1.66315L62.8476 2.52497L62.8476 2.52496L62.3404 1.66315ZM65.2395 1.08541L65.0076 2.05815L65.0076 2.05815L65.2395 1.08541ZM67.4778 2.87823L68.3388 2.36965L68.3388 2.36965L67.4778 2.87823ZM68.5107 5.79816L69.4891 5.59121L69.4891 5.59121L68.5107 5.79816ZM69.1755 14.6042L68.1755 14.6068L68.1755 14.6068L69.1755 14.6042ZM55.6292 77.4815L54.6697 77.1996L54.66 77.2325L54.6526 77.2661L55.6292 77.4815ZM48.1403 111.431L47.1637 111.216L47.1637 111.216L48.1403 111.431ZM48.1385 111.439L49.1126 111.666L49.115 111.654L48.1385 111.439ZM48.1366 111.447L47.1626 111.221L47.1625 111.221L48.1366 111.447ZM43.4077 138.46L44.4068 138.502L44.4068 138.502L43.4077 138.46ZM43.8761 143.527L44.7935 143.129L44.7935 143.129L43.8761 143.527ZM44.203 144.008L43.7053 144.875L43.7059 144.875L44.203 144.008ZM44.5469 144.015L44.7311 144.998L44.7311 144.998L44.5469 144.015ZM47.7154 142.042L48.3654 142.802L48.3654 142.802L47.7154 142.042ZM52.7935 136.893L53.5402 137.558L53.5402 137.558L52.7935 136.893ZM65.2549 121.737L66.0366 122.36L66.0366 122.36L65.2549 121.737ZM66.4993 120.177L67.2809 120.801L67.286 120.795L66.4993 120.177ZM73.0543 112.4L72.328 111.712L72.328 111.712L73.0543 112.4ZM77.885 108.269L77.3859 107.403L77.3859 107.403L77.885 108.269ZM82.2301 107.549L81.923 108.501L81.923 108.501L82.2301 107.549ZM85.4163 110.265L86.2435 109.703L86.2435 109.703L85.4163 110.265ZM85.5835 110.511L86.5626 110.308L86.5222 110.114L86.4107 109.95L85.5835 110.511ZM85.6441 110.803L86.6232 110.599L86.6231 110.599L85.6441 110.803ZM86.2824 113.916L87.2628 113.719L87.2624 113.717L86.2824 113.916ZM86.2832 113.92L85.3029 114.118L85.3075 114.14L85.3131 114.163L86.2832 113.92ZM86.2833 113.92L87.2632 113.721L87.2588 113.699L87.2534 113.678L86.2833 113.92ZM87.4588 119.388L86.488 119.628L86.488 119.628L87.4588 119.388ZM88.184 121.792L87.2553 122.163L87.2553 122.163L88.184 121.792ZM88.7771 122.853L89.4935 122.155L89.4935 122.155L88.7771 122.853ZM89.0166 122.982L88.9332 123.979L88.9333 123.979L89.0166 122.982ZM89.9621 122.76L89.5944 121.83L89.5944 121.83L89.9621 122.76ZM94.8434 119.86L94.2887 119.028L94.8434 119.86ZM100.166 116.695L100.588 117.601L100.588 117.601L100.166 116.695ZM103.755 116.012L103.506 116.98L103.506 116.98L103.755 116.012ZM105.891 118.172L104.954 118.522L104.954 118.522L105.891 118.172ZM106.266 119.411L107.233 119.157L107.233 119.155L106.266 119.411ZM106.326 119.639L107.293 119.384L107.293 119.384L106.326 119.639ZM106.483 120.226L105.519 120.491L105.609 120.819L105.88 121.023L106.483 120.226ZM108.345 121.402L107.893 122.294L108.959 122.834L109.303 121.689L108.345 121.402ZM116.679 95.9848L115.74 95.641L115.74 95.641L116.679 95.9848ZM139.333 42.9703L138.426 42.5494L138.426 42.5494L139.333 42.9703ZM149.167 22.1989L150.068 22.6337L150.068 22.6336L149.167 22.1989ZM152.148 16.0632L153.046 16.5028L153.046 16.5028L152.148 16.0632ZM152.959 14.4103L152.062 13.9684L152.062 13.9686L152.959 14.4103ZM153.097 14.1305L152.2 13.6881L152.2 13.6885L153.097 14.1305ZM153.171 13.9817L152.274 13.5389L152.274 13.5393L153.171 13.9817ZM153.225 13.8724L152.328 13.4291L152.328 13.4295L153.225 13.8724ZM153.238 13.8447L152.342 13.4005L152.342 13.4013L153.238 13.8447ZM153.242 13.8376L154.138 14.2818L154.14 14.2772L153.242 13.8376ZM153.243 13.8358L152.349 13.3878L152.344 13.3962L153.243 13.8358ZM155.931 15.1664L155.051 14.6918L155.041 14.7107L155.032 14.7302L155.931 15.1664ZM155.931 15.1681L156.826 15.6127L156.83 15.6044L155.931 15.1681ZM155.927 15.1748L155.032 14.7302L155.031 14.7316L155.927 15.1748ZM155.914 15.2018L155.018 14.7586L155.017 14.759L155.914 15.2018ZM155.861 15.3097L154.964 14.8669L154.964 14.8676L155.861 15.3097ZM155.651 15.7354L154.754 15.2932L154.754 15.2937L155.651 15.7354ZM154.843 17.3819L155.741 17.8215L155.741 17.8215L154.843 17.3819ZM151.869 23.5031L150.968 23.0684L150.968 23.0684L151.869 23.5031ZM142.055 44.2332L141.148 43.8122L141.148 43.8122L142.055 44.2332ZM119.496 97.0163L118.557 96.6725L118.557 96.6725L119.496 97.0163ZM111.206 122.306L110.248 122.018L109.91 123.146L111.077 123.297L111.206 122.306ZM115.008 121.991L114.755 121.023L114.755 121.023L115.008 121.991ZM118.138 120.918L118.498 121.851L118.51 121.846L118.138 120.918ZM118.138 120.918L117.778 119.985L117.767 119.989L118.138 120.918ZM119.025 120.579L118.673 119.643L118.673 119.643L119.025 120.579ZM120.08 123.387L119.728 122.451L119.728 122.451L120.08 123.387ZM119.301 123.686L119.617 124.634L119.639 124.627L119.661 124.619L119.301 123.686ZM119.301 123.686L118.984 122.737L118.962 122.744L118.94 122.753L119.301 123.686ZM115.768 124.893L115.515 123.926L115.515 123.926L115.768 124.893ZM110.364 125.212L110.194 126.197L110.195 126.198L110.364 125.212ZM110.342 125.208L110.512 124.223L109.635 124.071L109.383 124.925L110.342 125.208ZM103.68 149.035L102.714 148.778L102.714 148.778L103.68 149.035ZM98.5897 168.895L97.6188 168.655L97.2271 170.243L98.8186 169.868L98.5897 168.895ZM113.9 165.265L114.132 166.237L114.54 166.14L114.757 165.78L113.9 165.265ZM139.802 122.227L138.947 121.709L138.945 121.711L139.802 122.227ZM139.808 122.218L138.954 121.697L138.952 121.7L139.808 122.218ZM143.629 117.071L142.951 116.337L142.951 116.337L143.629 117.071ZM145.54 115.932L145.297 114.962L145.297 114.962L145.54 115.932ZM147.818 116.418L148.439 115.635L148.439 115.635L147.818 116.418ZM149.025 118.146L148.103 118.533L148.103 118.533L149.025 118.146ZM149.692 120.402L150.67 120.192L150.67 120.192L149.692 120.402ZM150.556 126.616L149.561 126.717L149.578 126.877L149.644 127.025L150.556 126.616ZM151.288 127.887L152.032 127.218L152.032 127.218L151.288 127.887ZM151.347 127.948L150.652 128.667L151.128 129.127L151.737 128.869L151.347 127.948ZM151.835 127.637L152.451 128.424L152.451 128.424L151.835 127.637ZM153.46 126.011L154.212 126.671L154.212 126.671L153.46 126.011ZM155.577 125.874L154.917 126.625L154.917 126.625L155.577 125.874ZM155.714 127.991L154.963 127.331L154.963 127.331L155.714 127.991ZM153.683 130L153.067 129.212L153.067 129.212L153.683 130ZM151.398 130.971L151.436 131.97L151.436 131.97L151.398 130.971ZM149.057 129.892L149.801 129.224L149.801 129.224L149.057 129.892ZM147.708 127.59L148.628 127.197L148.628 127.197L147.708 127.59ZM147.617 127.378L146.622 127.477L146.638 127.63L146.698 127.771L147.617 127.378ZM147.595 127.149L146.6 127.248L146.6 127.248L147.595 127.149ZM146.759 121.033L145.782 121.243L145.782 121.243L146.759 121.033ZM146.259 119.308L145.337 119.695L145.337 119.695L146.259 119.308ZM146.079 118.942L146.939 118.431L146.405 117.535L145.533 118.105L146.079 118.942ZM145.665 119.275L146.343 120.01L146.343 120.01L145.665 119.275ZM142.37 123.779L141.516 123.257L141.516 123.258L142.37 123.779ZM142.367 123.783L141.514 123.262L141.51 123.267L142.367 123.783ZM117.989 164.289L117.132 163.773L115.903 165.815L118.221 165.261L117.989 164.289ZM123.543 162.962L123.775 163.935L123.775 163.935L123.543 162.962ZM135.777 160.041L135.545 159.069L135.545 159.069L135.777 160.041ZM177.508 150.312L177.728 151.287L178.322 151.153L178.476 150.565L177.508 150.312ZM182.677 129.921L183.648 130.161L183.939 128.98L182.725 128.923L182.677 129.921ZM182.077 129.893L182.125 128.894L182.125 128.894L182.077 129.893ZM181.678 129.874L181.726 128.875L181.726 128.875L181.678 129.874ZM171.547 129.938L171.401 128.948L171.401 128.948L171.547 129.938ZM166.887 132.572L167.811 132.952L167.811 132.952L166.887 132.572ZM164.928 133.388L164.548 134.312L164.548 134.312L164.928 133.388ZM164.113 131.429L163.188 131.049L163.188 131.049L164.113 131.429ZM171.109 126.97L171.255 127.959L171.255 127.959L171.109 126.97ZM181.821 126.877L181.869 125.878L181.869 125.878L181.821 126.877ZM182.156 126.893L182.203 125.894L182.203 125.894L182.156 126.893ZM183.406 126.952L183.36 127.951L184.182 127.989L184.377 127.19L183.406 126.952ZM191.314 93.7227L190.348 93.4651L190.344 93.4796L190.341 93.4942L191.314 93.7227ZM191.314 93.7224L192.28 93.9801L192.291 93.941L192.298 93.9013L191.314 93.7224ZM191.314 93.7221L190.341 93.4936L190.335 93.5183L190.33 93.5433L191.314 93.7221ZM208.547 23.125L207.579 22.8746L207.579 22.8746L208.547 23.125ZM210.375 22.0483L210.626 21.0802L210.626 21.0802L210.375 22.0483ZM211.452 23.8761L210.484 23.6257L210.484 23.6257L211.452 23.8761ZM194.264 94.2891L195.236 94.5225L195.237 94.5177L194.264 94.2891ZM194.263 94.2897L195.234 94.5312L195.236 94.523L194.263 94.2897ZM194.263 94.2913L193.292 94.0498L193.289 94.0628L194.263 94.2913ZM186.463 127.076L185.491 126.838L185.199 128.036L186.431 128.075L186.463 127.076ZM193.938 126.989L194.01 127.986L194.01 127.986L193.938 126.989ZM204.771 124.189L204.286 123.315L204.286 123.315L204.771 124.189ZM206.228 126.812L206.714 127.686L206.714 127.686L206.228 126.812ZM194.155 129.981L194.083 128.984L194.083 128.984L194.155 129.981ZM185.733 130.053L185.769 129.053L184.956 129.024L184.762 129.814L185.733 130.053ZM180.8 149.572L179.832 149.32L179.42 150.906L181.019 150.548L180.8 149.572ZM287.365 131.007L287.455 132.003L287.455 132.003L287.365 131.007ZM287.634 133.995L287.544 132.999L287.544 132.999L287.634 133.995ZM179.946 152.838L179.727 151.862L179.134 151.996L178.979 152.584L179.946 152.838ZM170.94 185.418L169.98 185.14L169.98 185.14L170.94 185.418ZM169.082 186.441L169.36 185.481L169.36 185.481L169.082 186.441ZM168.059 184.583L169.019 184.861L169.019 184.861L168.059 184.583ZM176.649 153.582L177.616 153.837L178.037 152.242L176.428 152.606L176.649 153.582ZM136.472 162.96L136.24 161.987L136.24 161.987L136.472 162.96ZM124.261 165.875L124.492 166.848L124.494 166.847L124.261 165.875ZM124.25 165.877L124.479 166.851L124.481 166.85L124.25 165.877ZM124.249 165.877L124.02 164.904L124.017 164.905L124.249 165.877ZM124.183 165.893L123.951 164.921L123.949 164.921L124.183 165.893ZM124.175 165.895L124.408 166.868L124.409 166.867L124.175 165.895ZM115.821 167.891L115.589 166.918L115.181 167.015L114.964 167.375L115.821 167.891ZM109.873 177.774L110.729 178.29L110.729 178.29L109.873 177.774ZM109.86 177.794L110.7 178.337L110.709 178.324L110.717 178.31L109.86 177.794ZM109.847 177.814L109.008 177.272L109.007 177.272L109.847 177.814ZM101.527 189.987L100.733 189.38L100.733 189.38L101.527 189.987ZM98.4541 193.584L99.1552 194.297L99.1552 194.297L98.4541 193.584ZM95.6572 195.448L95.9095 196.415L95.9095 196.415L95.6572 195.448ZM93.8663 195.299L94.3046 194.4L94.3046 194.4L93.8663 195.299ZM92.6363 194.03L93.5287 193.579L93.5287 193.579L92.6363 194.03ZM92.0016 190.438L91.0017 190.451L91.0017 190.451L92.0016 190.438ZM93.6099 176.741L92.625 176.569L92.625 176.569L93.6099 176.741ZM93.6171 176.7L92.6432 176.473L92.637 176.5L92.6322 176.527L93.6171 176.7ZM93.6266 176.66L93.8539 175.686L92.8799 175.458L92.6527 176.433L93.6266 176.66ZM93.6268 176.659L92.6533 176.43L92.6527 176.433L93.6268 176.659ZM93.6272 176.657L94.6006 176.886L94.6011 176.884L93.6272 176.657ZM93.6288 176.65L92.6551 176.422L92.6548 176.423L93.6288 176.65ZM93.6351 176.623L92.6615 176.395L92.6614 176.395L93.6351 176.623ZM93.66 176.517L92.6866 176.288L92.6865 176.289L93.66 176.517ZM93.7012 176.342L92.7279 176.113L92.7277 176.113L93.7012 176.342ZM93.7582 176.1L92.785 175.87L92.7849 175.871L93.7582 176.1ZM94.1403 174.494L93.1677 174.261L93.1677 174.261L94.1403 174.494ZM94.516 172.931L95.4881 173.166L95.8689 171.588L94.2886 171.957L94.516 172.931ZM67.7354 178.967L67.9447 179.945L67.9447 179.945L67.7354 178.967ZM67.1076 176.034L67.3169 177.012L67.3169 177.012L67.1076 176.034ZM95.311 169.664L95.5389 170.638L96.1362 170.498L96.2823 169.902L95.311 169.664ZM95.5909 168.526L94.6199 168.286L94.6199 168.286L95.5909 168.526ZM100.781 148.264L101.747 148.521L101.747 148.521L100.781 148.264ZM107.478 124.313L108.437 124.596L108.683 123.763L107.893 123.403L107.478 124.313ZM104.235 122.277L104.862 121.498L104.862 121.498L104.235 122.277ZM103.873 121.985L102.915 122.273L103.004 122.57L103.246 122.764L103.873 121.985ZM103.739 121.54L104.697 121.252L104.697 121.252L103.739 121.54ZM103.42 120.386L104.388 120.132L104.385 120.123L103.42 120.386ZM103.42 120.385L102.453 120.638L102.456 120.649L103.42 120.385ZM103.42 120.385L104.388 120.132L104.387 120.13L103.42 120.385ZM103.366 120.179L104.333 119.924L104.333 119.923L103.366 120.179ZM103.08 119.221L102.144 119.57L102.144 119.57L103.08 119.221ZM102.944 118.916L103.806 118.41L103.506 117.897L102.912 117.916L102.944 118.916ZM102.667 118.956L102.884 119.932L102.884 119.932L102.667 118.956ZM101.434 119.414L101.011 118.507L101.011 118.507L101.434 119.414ZM96.5075 122.356L97.0622 123.188L96.5075 122.356ZM91.0652 125.55L90.6975 124.62L90.6975 124.62L91.0652 125.55ZM88.7667 125.972L88.6835 126.968L88.6835 126.968L88.7667 125.972ZM86.6277 124.946L87.3442 124.248L87.3442 124.248L86.6277 124.946ZM85.398 122.904L86.3267 122.534L86.3267 122.534L85.398 122.904ZM84.5465 120.109L85.5173 119.869L85.5173 119.869L84.5465 120.109ZM83.328 114.443L82.3459 114.632L82.348 114.642L83.328 114.443ZM83.3279 114.443L84.3099 114.254L84.3078 114.243L83.3279 114.443ZM83.3259 114.433L84.3058 114.234L84.3058 114.233L83.3259 114.433ZM82.7695 111.715L83.7487 111.512L83.7052 111.303L83.5797 111.129L82.7695 111.715ZM81.3089 110.404L81.616 109.453L81.616 109.453L81.3089 110.404ZM79.3822 110.869L78.8832 110.002L78.8831 110.002L79.3822 110.869ZM75.233 114.462L75.9593 115.15L75.9593 115.15L75.233 114.462ZM68.8554 122.034L69.6396 122.655L69.6421 122.652L68.8554 122.034ZM68.8478 122.044L69.6293 122.668L69.6319 122.665L68.8478 122.044ZM67.5841 123.628L68.3658 124.251L68.3658 124.251L67.5841 123.628ZM55.0336 138.888L54.2869 138.223L54.2869 138.223L55.0336 138.888ZM49.6653 144.322L50.3153 145.082L50.3153 145.082L49.6653 144.322ZM45.0994 146.964L44.9152 145.981L44.9152 145.981L45.0994 146.964ZM42.7107 146.61L42.2133 147.478L42.2133 147.478L42.7107 146.61ZM41.1239 144.721L42.0413 144.323L42.0413 144.323L41.1239 144.721ZM40.4102 138.336L39.4111 138.294L39.4111 138.294L40.4102 138.336ZM45.2125 110.777L46.1865 111.003L46.1866 111.003L45.2125 110.777ZM45.2143 110.769L46.1885 110.995L46.1909 110.984L45.2143 110.769ZM52.7107 76.785L53.6872 77.0004L53.6872 77.0004L52.7107 76.785ZM52.7218 76.7347L51.7623 76.4528L51.7527 76.4857L51.7452 76.5193L52.7218 76.7347ZM52.7363 76.6853L53.6957 76.9672L53.6957 76.9672L52.7363 76.6853ZM66.1755 14.612L67.1755 14.6094L67.1755 14.6094L66.1755 14.612ZM65.5757 6.41903L66.554 6.21208L66.554 6.21208L65.5757 6.41903ZM64.8948 4.40398L64.0338 4.91256L64.0338 4.91257L64.8948 4.40398ZM64.6239 4.0541L65.2728 3.29329L65.2728 3.29328L64.6239 4.0541ZM64.544 4.00367L64.3333 4.98123L64.3367 4.98195L64.544 4.00367ZM64.5438 4.00362L64.3149 4.97708L64.324 4.97921L64.3331 4.98118L64.5438 4.00362ZM64.5436 4.00358L64.3083 4.97553L64.3147 4.97704L64.5436 4.00358ZM64.3939 4.01596L64.1726 3.04074L64.1726 3.04075L64.3939 4.01596ZM63.862 4.2486L64.3692 5.11042L64.3692 5.11042L63.862 4.2486ZM61.8704 6.01742L62.6126 6.68755L62.6126 6.68755L61.8704 6.01742ZM153.243 13.8352L152.347 13.3915L151.903 14.2878L152.799 14.7314L153.243 13.8352ZM155.253 13.1562L155.696 12.26L155.696 12.26L155.253 13.1562ZM155.932 15.166L155.488 16.0622L156.384 16.5058L156.828 15.6096L155.932 15.166ZM97.0579 175.192L96.0854 174.959L96.0854 174.959L97.0579 175.192ZM97.7885 172.165L97.56 171.191L96.962 171.332L96.8168 171.928L97.7885 172.165ZM96.6778 176.79L95.7046 176.56L95.7045 176.56L96.6778 176.79ZM96.6225 177.024L95.6492 176.795L95.6491 176.796L96.6225 177.024ZM96.5807 177.202L95.6072 176.974L95.6071 176.974L96.5807 177.202ZM96.5575 177.301L95.5839 177.073L95.5774 177.101L95.5725 177.129L96.5575 177.301ZM95.0013 190.398L96.0012 190.385L96.0012 190.385L95.0013 190.398ZM95.2099 192.393L94.2469 192.663L94.6052 193.944L95.7363 193.244L95.2099 192.393ZM96.3507 191.445L97.0518 192.158L97.0518 192.158L96.3507 191.445ZM99.1438 188.165L98.3494 187.558L98.3493 187.558L99.1438 188.165ZM107.314 176.207L108.154 176.749L108.163 176.736L108.171 176.722L107.314 176.207ZM111.733 168.865L112.59 169.381L113.818 167.341L111.501 167.892L111.733 168.865ZM102.9 118.856L103.895 118.956L103.895 118.955L102.9 118.856ZM102.915 118.872L102.271 119.636L103.718 118.275L102.915 118.872ZM151.405 127.997L152.086 128.73L152.099 128.717L152.113 128.704L151.405 127.997ZM151.4 127.993L151.889 127.121L150.835 128.819L151.4 127.993ZM151.405 127.997L151.999 127.192L151.978 127.177L151.957 127.163L151.405 127.997ZM151.404 127.996L151.956 127.162L151.925 127.142L151.893 127.124L151.404 127.996ZM12.5086 223.71C-4.79563 178.758 6.98618 120.393 56.4069 15.7374L54.5984 14.8833C5.19421 119.504 -6.99916 178.601 10.6421 224.428L12.5086 223.71ZM11.0736 226.941C12.3621 226.445 13.0046 224.999 12.5086 223.71L10.6421 224.428C10.7413 224.686 10.6128 224.976 10.3551 225.075L11.0736 226.941ZM7.84237 225.506C8.33839 226.795 9.78506 227.437 11.0736 226.941L10.3551 225.075C10.0974 225.174 9.80806 225.045 9.70885 224.788L7.84237 225.506ZM51.9149 13.5405C2.51107 118.147 -10.308 178.357 7.84237 225.506L9.70885 224.788C-8.1044 178.514 4.30303 119.036 53.7234 14.3946L51.9149 13.5405ZM51.944 13.4789L51.9149 13.5405L53.7233 14.3946L53.7524 14.3331L51.944 13.4789ZM52.0209 13.3402L51.9864 13.3988L53.71 14.4132L53.7446 14.3545L52.0209 13.3402ZM58.9014 3.3369C56.9689 5.47742 54.6988 8.78967 52.0209 13.3401L53.7446 14.3545C56.4027 9.8377 58.5912 6.66505 60.3859 4.67716L58.9014 3.3369ZM61.8332 0.801327C60.8381 1.38696 59.8638 2.27096 58.9014 3.3369L60.3859 4.67716C61.2824 3.68422 62.0998 2.96508 62.8476 2.52497L61.8332 0.801327ZM65.4714 0.112673C64.0955 -0.215352 62.8239 0.21822 61.8332 0.801328L62.8476 2.52496C63.5963 2.08431 64.3251 1.89543 65.0076 2.05815L65.4714 0.112673ZM68.3388 2.36965C67.7803 1.42402 66.8718 0.446532 65.4714 0.112673L65.0076 2.05815C65.6945 2.22192 66.2194 2.71401 66.6168 3.38682L68.3388 2.36965ZM69.4891 5.59121C69.2437 4.43119 68.8904 3.30341 68.3388 2.36965L66.6168 3.38681C67.0115 4.05499 67.3081 4.94473 67.5324 6.00512L69.4891 5.59121ZM70.1755 14.6017C70.1663 11.0282 69.9824 7.92358 69.4891 5.59121L67.5324 6.00512C67.9816 8.12886 68.1664 11.0651 68.1755 14.6068L70.1755 14.6017ZM56.5886 77.7633C66.2272 44.9535 70.2129 29.162 70.1755 14.6017L68.1755 14.6068C68.212 28.8218 64.3285 44.321 54.6697 77.1996L56.5886 77.7633ZM49.1168 111.647L56.6057 77.6969L54.6526 77.2661L47.1637 111.216L49.1168 111.647ZM49.115 111.654L49.1168 111.646L47.1637 111.216L47.1619 111.224L49.115 111.654ZM49.1106 111.674L49.1125 111.666L47.1645 111.213L47.1626 111.221L49.1106 111.674ZM44.4068 138.502C44.6213 133.333 46.0759 124.743 49.1107 111.674L47.1625 111.221C44.1267 124.295 42.6315 133.045 42.4085 138.419L44.4068 138.502ZM44.7935 143.129C44.5367 142.537 44.2967 141.155 44.4068 138.502L42.4085 138.419C42.2965 141.118 42.5102 142.891 42.9587 143.925L44.7935 143.129ZM44.7006 143.14C44.7213 143.152 44.7422 143.165 44.7627 143.18C44.7826 143.194 44.7998 143.207 44.8144 143.22C44.8437 143.245 44.8602 143.264 44.8661 143.271C44.8771 143.285 44.8463 143.251 44.7935 143.129L42.9587 143.925C43.1799 144.435 43.4403 144.723 43.7053 144.875L44.7006 143.14ZM44.3627 143.032C44.309 143.042 44.3366 143.03 44.4165 143.041C44.4585 143.046 44.5128 143.058 44.5749 143.081C44.606 143.093 44.6357 143.106 44.664 143.121C44.6891 143.133 44.7196 143.151 44.7 143.14L43.7059 144.875C43.6891 144.866 43.7242 144.886 43.7567 144.903C43.7922 144.921 43.8317 144.939 43.8754 144.955C43.963 144.988 44.0545 145.01 44.149 145.023C44.3341 145.048 44.5283 145.036 44.7311 144.998L44.3627 143.032ZM47.0654 141.282C45.5743 142.558 44.7069 142.968 44.3627 143.032L44.7311 144.998C45.6346 144.829 46.8483 144.1 48.3654 142.802L47.0654 141.282ZM52.0467 136.228C50.1289 138.381 48.4644 140.086 47.0654 141.282L48.3654 142.802C49.8656 141.519 51.5997 139.736 53.5402 137.558L52.0467 136.228ZM64.4731 121.113C59.7606 127.02 55.5721 132.27 52.0467 136.228L53.5402 137.558C57.1097 133.551 61.3364 128.252 66.0366 122.36L64.4731 121.113ZM65.7178 119.553C65.2991 120.078 64.8842 120.598 64.4731 121.113L66.0366 122.36C66.4476 121.845 66.8624 121.325 67.2809 120.801L65.7178 119.553ZM72.328 111.712C70.4602 113.686 68.2856 116.282 65.7127 119.56L67.286 120.795C69.8433 117.536 71.9743 114.995 73.7805 113.087L72.328 111.712ZM77.3859 107.403C75.8335 108.297 74.1735 109.763 72.328 111.712L73.7805 113.087C75.5828 111.183 77.0844 109.884 78.3841 109.136L77.3859 107.403ZM82.5371 106.598C80.7345 106.016 78.972 106.489 77.3859 107.403L78.3841 109.136C79.6923 108.382 80.8528 108.156 81.923 108.501L82.5371 106.598ZM86.2435 109.703C85.3885 108.445 84.2241 107.142 82.5371 106.598L81.923 108.501C82.9716 108.839 83.8183 109.692 84.5891 110.827L86.2435 109.703ZM86.4107 109.95L86.2435 109.703L84.5891 110.827L84.7563 111.073L86.4107 109.95ZM86.6231 110.599L86.5626 110.308L84.6044 110.715L84.665 111.006L86.6231 110.599ZM87.2624 113.717C87.0679 112.761 86.8568 111.723 86.6232 110.599L84.665 111.006C84.8977 112.125 85.108 113.159 85.3025 114.116L87.2624 113.717ZM87.2636 113.723L87.2628 113.719L85.3021 114.114L85.3029 114.118L87.2636 113.723ZM87.2534 113.678L87.2534 113.678L85.3131 114.163L85.3131 114.163L87.2534 113.678ZM88.4296 119.148C88.0789 117.73 87.7181 115.957 87.2632 113.721L85.3033 114.12C85.7551 116.341 86.1251 118.161 86.488 119.628L88.4296 119.148ZM89.1127 121.421C88.9006 120.89 88.6786 120.156 88.4296 119.148L86.488 119.628C86.7454 120.669 86.9932 121.506 87.2553 122.163L89.1127 121.421ZM89.4935 122.155C89.4939 122.156 89.4833 122.145 89.4629 122.117C89.4428 122.09 89.4148 122.048 89.3802 121.989C89.3105 121.87 89.2194 121.688 89.1127 121.421L87.2553 122.163C87.5188 122.822 87.7843 123.267 88.0606 123.551L89.4935 122.155ZM89.0999 121.986C89.107 121.986 89.2166 121.995 89.3426 122.056C89.4517 122.108 89.5047 122.167 89.4935 122.155L88.0606 123.551C88.1554 123.648 88.2899 123.768 88.4732 123.857C88.6733 123.953 88.8497 123.972 88.9332 123.979L89.0999 121.986ZM89.5944 121.83C89.3742 121.917 89.2291 121.956 89.1452 121.973C89.0591 121.99 89.0512 121.982 89.0998 121.986L88.9333 123.979C89.2852 124.008 89.7349 123.925 90.3298 123.69L89.5944 121.83ZM94.2887 119.028C91.9747 120.571 90.5575 121.449 89.5944 121.83L90.3298 123.69C91.5308 123.215 93.1364 122.2 95.3981 120.692L94.2887 119.028ZM99.7429 115.789C98.3396 116.443 96.5624 117.512 94.2887 119.028L95.3981 120.692C97.6528 119.189 99.3275 118.189 100.588 117.601L99.7429 115.789ZM104.004 115.043C102.534 114.665 101.021 115.192 99.7429 115.789L100.588 117.601C101.822 117.025 102.767 116.79 103.506 116.98L104.004 115.043ZM106.828 117.823C106.51 116.97 105.79 115.502 104.004 115.043L103.506 116.98C104.304 117.185 104.697 117.831 104.954 118.522L106.828 117.823ZM107.233 119.155C107.126 118.753 106.996 118.273 106.828 117.823L104.954 118.522C105.084 118.869 105.192 119.262 105.299 119.667L107.233 119.155ZM107.293 119.384L107.233 119.157L105.299 119.666L105.359 119.893L107.293 119.384ZM107.447 119.96C107.394 119.77 107.345 119.581 107.293 119.384L105.359 119.893C105.41 120.088 105.463 120.288 105.519 120.491L107.447 119.96ZM108.797 120.51C108.257 120.236 107.687 119.883 107.086 119.428L105.88 121.023C106.568 121.544 107.239 121.963 107.893 122.294L108.797 120.51ZM115.74 95.641C112.882 103.446 110.043 112.259 107.387 121.114L109.303 121.689C111.953 112.856 114.778 104.083 117.618 96.3286L115.74 95.641ZM138.426 42.5494C130.75 59.0914 121.587 79.6714 115.74 95.641L117.618 96.3286C123.435 80.4427 132.567 59.9267 140.241 43.3913L138.426 42.5494ZM148.267 21.7642C145.748 26.9814 142.269 34.2684 138.426 42.5494L140.241 43.3913C144.078 35.1216 147.553 27.8439 150.068 22.6337L148.267 21.7642ZM151.25 15.6236C150.545 17.0638 149.526 19.1555 148.267 21.7642L150.068 22.6336C151.325 20.0285 152.343 17.94 153.046 16.5028L151.25 15.6236ZM152.062 13.9686C151.876 14.3462 151.602 14.9035 151.25 15.6236L153.046 16.5028C153.398 15.7841 153.671 15.2283 153.856 14.852L152.062 13.9686ZM152.2 13.6885L152.062 13.9684L153.856 14.8523L153.994 14.5725L152.2 13.6885ZM152.274 13.5393L152.2 13.6881L153.994 14.5729L154.067 14.4241L152.274 13.5393ZM152.328 13.4295L152.274 13.5389L154.067 14.4246L154.121 14.3153L152.328 13.4295ZM152.342 13.4013L152.328 13.4291L154.121 14.3158L154.135 14.288L152.342 13.4013ZM152.346 13.3934L152.342 13.4005L154.134 14.2889L154.138 14.2818L152.346 13.3934ZM152.344 13.3962L152.344 13.398L154.14 14.2772L154.141 14.2754L152.344 13.3962ZM155.031 13.6043C154.359 13.2717 154.022 13.1052 153.854 13.022C153.77 12.9806 153.727 12.9591 153.704 12.948C153.694 12.9433 153.683 12.9376 153.673 12.9329C153.67 12.9314 153.664 12.9289 153.658 12.9258C153.653 12.9238 153.637 12.9166 153.617 12.9083C153.607 12.9043 153.586 12.8961 153.559 12.8872C153.54 12.8808 153.478 12.8603 153.396 12.8476C153.342 12.8392 153.091 12.7998 152.811 12.9337C152.652 13.0098 152.533 13.1179 152.45 13.2263C152.412 13.2751 152.387 13.3181 152.371 13.3453C152.365 13.3558 152.357 13.3717 152.354 13.3771C152.351 13.3824 152.349 13.3878 152.349 13.3878L154.137 14.2838C154.137 14.2838 154.134 14.2892 154.131 14.2946C154.128 14.2999 154.12 14.3158 154.114 14.3264C154.099 14.3535 154.073 14.3965 154.035 14.4453C153.952 14.5537 153.833 14.6618 153.674 14.7379C153.394 14.8718 153.144 14.8324 153.09 14.824C153.007 14.8113 152.945 14.7908 152.926 14.7844C152.9 14.7756 152.879 14.7675 152.869 14.7634C152.849 14.7553 152.834 14.7484 152.83 14.7467C152.824 14.7439 152.82 14.7418 152.818 14.741C152.813 14.7388 152.812 14.7382 152.824 14.7439C152.843 14.7534 152.884 14.7734 152.968 14.815C153.136 14.8979 153.471 15.064 154.144 15.3968L155.031 13.6043ZM156.812 15.6411C156.812 15.6411 156.815 15.6345 156.819 15.6278C156.822 15.6212 156.832 15.6011 156.838 15.5875C156.855 15.5522 156.879 15.4948 156.899 15.4207C156.943 15.2522 156.945 15.0644 156.889 14.8789C156.801 14.584 156.602 14.4241 156.583 14.408C156.53 14.3625 156.484 14.333 156.471 14.3245C156.452 14.3122 156.436 14.3031 156.429 14.2987C156.413 14.2899 156.401 14.2833 156.397 14.2815C156.392 14.2787 156.388 14.2764 156.385 14.2751C156.377 14.2708 156.366 14.2657 156.357 14.2609C156.335 14.2498 156.291 14.2284 156.208 14.1869C156.039 14.1035 155.703 13.937 155.031 13.6043L154.144 15.3968C154.816 15.7295 155.152 15.8958 155.32 15.9789C155.404 16.0206 155.445 16.0409 155.464 16.0507C155.476 16.0564 155.476 16.0565 155.473 16.0549C155.471 16.0543 155.468 16.0525 155.464 16.0501C155.461 16.0487 155.449 16.0424 155.434 16.0337C155.426 16.0294 155.411 16.0204 155.392 16.0081C155.378 15.9997 155.332 15.9702 155.28 15.9248C155.252 15.9014 155.204 15.8574 155.153 15.7939C155.103 15.732 155.023 15.6179 154.974 15.4539C154.918 15.2684 154.92 15.0806 154.964 14.9122C154.984 14.8381 155.008 14.7806 155.024 14.7454C155.031 14.7318 155.041 14.7117 155.044 14.705C155.048 14.6984 155.051 14.6918 155.051 14.6918L156.812 15.6411ZM156.83 15.6044L156.831 15.6027L155.032 14.7302L155.031 14.7318L156.83 15.6044ZM156.823 15.6194L156.826 15.6127L155.035 14.7235L155.032 14.7302L156.823 15.6194ZM156.81 15.645L156.824 15.618L155.031 14.7316L155.018 14.7586L156.81 15.645ZM156.757 15.7526L156.811 15.6447L155.017 14.759L154.964 14.8669L156.757 15.7526ZM156.548 16.1775L156.758 15.7519L154.964 14.8676L154.754 15.2932L156.548 16.1775ZM155.741 17.8215C156.092 17.1051 156.364 16.5513 156.548 16.177L154.754 15.2937C154.569 15.6693 154.296 16.2244 153.945 16.9424L155.741 17.8215ZM152.769 23.9378C154.024 21.338 155.04 19.2544 155.741 17.8215L153.945 16.9424C153.242 18.3782 152.225 20.465 150.968 23.0684L152.769 23.9378ZM142.962 44.6541C146.792 36.4013 150.259 29.1378 152.769 23.9378L150.968 23.0684C148.455 28.2752 144.983 35.5482 141.148 43.8122L142.962 44.6541ZM120.435 97.3601C126.206 81.5996 135.293 61.1796 142.962 44.6541L141.148 43.8122C133.476 60.3443 124.358 80.8283 118.557 96.6725L120.435 97.3601ZM112.164 122.593C114.803 113.791 117.615 105.062 120.435 97.3601L118.557 96.6725C115.718 104.425 112.894 113.195 110.248 122.018L112.164 122.593ZM114.755 121.023C113.594 121.327 112.475 121.462 111.334 121.314L111.077 123.297C112.547 123.488 113.935 123.306 115.262 122.958L114.755 121.023ZM117.778 119.985C116.73 120.389 115.774 120.756 114.755 121.023L115.262 122.958C116.407 122.658 117.466 122.249 118.498 121.851L117.778 119.985ZM117.767 119.989L117.767 119.989L118.51 121.846L118.51 121.846L117.767 119.989ZM118.673 119.643C118.369 119.757 118.07 119.872 117.779 119.985L118.498 121.851C118.791 121.738 119.081 121.626 119.376 121.515L118.673 119.643ZM123.175 118.608C121.547 118.608 119.956 119.161 118.673 119.643L119.376 121.515C120.667 121.03 121.949 120.608 123.175 120.608V118.608ZM125.675 121.108C125.675 119.727 124.556 118.608 123.175 118.608V120.608C123.452 120.608 123.675 120.832 123.675 121.108H125.675ZM123.175 123.608C124.556 123.608 125.675 122.489 125.675 121.108H123.675C123.675 121.384 123.452 121.608 123.175 121.608V123.608ZM120.431 124.324C121.739 123.832 122.556 123.608 123.175 123.608V121.608C122.151 121.608 121.023 121.965 119.728 122.451L120.431 124.324ZM119.661 124.619C119.932 124.514 120.188 124.415 120.431 124.324L119.728 122.451C119.474 122.547 119.21 122.649 118.94 122.753L119.661 124.619ZM119.617 124.634L119.617 124.634L118.984 122.737L118.984 122.737L119.617 124.634ZM116.022 125.86C117.347 125.513 118.609 125.025 119.661 124.619L118.94 122.753C117.875 123.164 116.714 123.612 115.515 123.926L116.022 125.86ZM110.195 126.198C112.348 126.567 114.31 126.309 116.022 125.86L115.515 123.926C113.984 124.326 112.323 124.534 110.533 124.226L110.195 126.198ZM110.172 126.193L110.194 126.197L110.535 124.227L110.512 124.223L110.172 126.193ZM104.647 149.292C106.609 141.915 108.871 133.721 111.301 125.491L109.383 124.925C106.947 133.176 104.679 141.388 102.714 148.778L104.647 149.292ZM99.5606 169.134C100.802 164.104 102.551 157.17 104.647 149.292L102.714 148.778C100.615 156.67 98.8622 163.616 97.6188 168.655L99.5606 169.134ZM113.668 164.292C108.453 165.535 103.343 166.749 98.3607 167.921L98.8186 169.868C103.804 168.696 108.916 167.481 114.132 166.237L113.668 164.292ZM138.945 121.711L113.043 164.749L114.757 165.78L140.659 122.743L138.945 121.711ZM138.952 121.7L138.947 121.709L140.658 122.745L140.663 122.736L138.952 121.7ZM142.951 116.337C141.734 117.46 140.421 119.298 138.954 121.697L140.661 122.74C142.117 120.358 143.31 118.728 144.308 117.806L142.951 116.337ZM145.297 114.962C144.338 115.202 143.554 115.78 142.951 116.337L144.308 117.806C144.805 117.346 145.295 117.024 145.784 116.902L145.297 114.962ZM148.439 115.635C147.541 114.923 146.418 114.681 145.297 114.962L145.784 116.902C146.304 116.771 146.788 116.878 147.197 117.202L148.439 115.635ZM149.947 117.758C149.658 117.071 149.205 116.242 148.439 115.635L147.197 117.202C147.579 117.505 147.869 117.976 148.103 118.533L149.947 117.758ZM150.67 120.192C150.482 119.317 150.251 118.483 149.947 117.758L148.103 118.533C148.34 119.098 148.54 119.798 148.715 120.612L150.67 120.192ZM151.551 126.516C151.303 124.051 151.034 121.887 150.67 120.192L148.715 120.612C149.054 122.19 149.314 124.257 149.561 126.717L151.551 126.516ZM152.032 127.218C151.953 127.13 151.758 126.854 151.469 126.208L149.644 127.025C149.962 127.737 150.258 128.237 150.544 128.555L152.032 127.218ZM152.042 127.229C152.044 127.231 152.041 127.228 152.032 127.218L150.544 128.555C150.582 128.597 150.617 128.634 150.652 128.667L152.042 127.229ZM151.22 126.849C151.023 127.003 150.94 127.035 150.957 127.028L151.737 128.869C151.918 128.792 152.151 128.659 152.451 128.424L151.22 126.849ZM152.709 125.35C152.043 126.109 151.565 126.579 151.22 126.849L152.451 128.424C152.946 128.038 153.522 127.456 154.212 126.671L152.709 125.35ZM156.237 125.122C155.2 124.211 153.621 124.313 152.709 125.35L154.212 126.671C154.394 126.463 154.71 126.443 154.917 126.625L156.237 125.122ZM156.465 128.651C157.377 127.613 157.275 126.034 156.237 125.122L154.917 126.625C155.125 126.807 155.145 127.123 154.963 127.331L156.465 128.651ZM154.299 130.788C155.017 130.226 155.739 129.477 156.465 128.651L154.963 127.331C154.261 128.129 153.637 128.767 153.067 129.212L154.299 130.788ZM151.436 131.97C152.642 131.925 153.618 131.32 154.299 130.788L153.067 129.212C152.506 129.651 151.94 129.95 151.361 129.971L151.436 131.97ZM148.313 130.561C149.012 131.338 150.058 132.022 151.436 131.97L151.361 129.971C150.751 129.994 150.237 129.709 149.801 129.224L148.313 130.561ZM146.789 127.983C147.188 128.918 147.67 129.845 148.314 130.561L149.801 129.224C149.378 128.754 149 128.068 148.628 127.197L146.789 127.983ZM146.698 127.771L146.789 127.983L148.628 127.197L148.537 126.985L146.698 127.771ZM146.6 127.248L146.622 127.477L148.613 127.279L148.59 127.05L146.6 127.248ZM145.782 121.243C146.093 122.691 146.346 124.692 146.6 127.248L148.59 127.05C148.336 124.491 148.074 122.391 147.737 120.823L145.782 121.243ZM145.337 119.695C145.473 120.019 145.626 120.519 145.782 121.243L147.737 120.823C147.568 120.039 147.385 119.405 147.181 118.92L145.337 119.695ZM145.22 119.454C145.242 119.492 145.284 119.568 145.337 119.695L147.181 118.92C147.096 118.719 147.014 118.558 146.939 118.431L145.22 119.454ZM146.343 120.01C146.482 119.882 146.576 119.813 146.626 119.78L145.533 118.105C145.369 118.212 145.187 118.355 144.986 118.541L146.343 120.01ZM143.223 124.3C144.662 121.946 145.674 120.628 146.343 120.01L144.986 118.541C144.098 119.361 142.966 120.887 141.516 123.257L143.223 124.3ZM143.221 124.304L143.223 124.3L141.516 123.258L141.514 123.262L143.221 124.304ZM118.845 164.804L143.224 124.299L141.51 123.267L117.132 163.773L118.845 164.804ZM123.31 161.989C121.447 162.434 119.596 162.877 117.756 163.316L118.221 165.261C120.061 164.822 121.912 164.38 123.775 163.935L123.31 161.989ZM135.545 159.069C131.421 160.051 127.34 161.026 123.31 161.989L123.775 163.935C127.805 162.972 131.886 161.996 136.009 161.014L135.545 159.069ZM177.288 149.336C163.155 152.525 149.121 155.835 135.545 159.069L136.009 161.014C149.582 157.781 163.607 154.473 177.728 151.287L177.288 149.336ZM181.706 129.682C180.067 136.337 178.364 143.082 176.541 150.059L178.476 150.565C180.302 143.577 182.007 136.823 183.648 130.161L181.706 129.682ZM182.725 128.923C182.524 128.913 182.324 128.904 182.125 128.894L182.029 130.892C182.228 130.901 182.429 130.911 182.63 130.92L182.725 128.923ZM182.125 128.894L181.726 128.875L181.631 130.873L182.03 130.892L182.125 128.894ZM181.726 128.875C177.774 128.687 174.202 128.535 171.401 128.948L171.693 130.927C174.261 130.548 177.618 130.682 181.631 130.873L181.726 128.875ZM171.401 128.948C168.59 129.363 166.732 130.32 165.962 132.191L167.811 132.952C168.171 132.079 169.105 131.309 171.693 130.927L171.401 128.948ZM165.962 132.191C165.857 132.446 165.565 132.568 165.309 132.463L164.548 134.312C165.824 134.838 167.286 134.229 167.811 132.952L165.962 132.191ZM165.309 132.463C165.054 132.358 164.932 132.066 165.037 131.81L163.188 131.049C162.662 132.325 163.271 133.787 164.548 134.312L165.309 132.463ZM165.037 131.81C166.015 129.436 168.339 128.389 171.255 127.959L170.963 125.98C167.84 126.441 164.58 127.667 163.188 131.049L165.037 131.81ZM171.255 127.959C174.172 127.529 177.851 127.689 181.773 127.876L181.869 125.878C178.005 125.694 174.113 125.516 170.963 125.98L171.255 127.959ZM181.773 127.876L182.108 127.892L182.203 125.894L181.869 125.878L181.773 127.876ZM182.108 127.892C182.523 127.912 182.94 127.932 183.36 127.951L183.452 125.953C183.034 125.934 182.618 125.914 182.203 125.894L182.108 127.892ZM190.341 93.4942C187.684 104.81 185.137 115.665 182.434 126.715L184.377 127.19C187.082 116.13 189.632 105.266 192.288 93.9512L190.341 93.4942ZM190.348 93.4647L190.348 93.4651L192.28 93.9804L192.28 93.9801L190.348 93.4647ZM190.33 93.5433L190.33 93.5435L192.298 93.9013L192.298 93.901L190.33 93.5433ZM207.579 22.8746C200.409 50.5979 195.195 72.8127 190.341 93.4936L192.288 93.9507C197.142 73.2703 202.352 51.0748 209.516 23.3754L207.579 22.8746ZM210.626 21.0802C209.289 20.7345 207.925 21.5379 207.579 22.8746L209.516 23.3754C209.585 23.108 209.857 22.9473 210.125 23.0165L210.626 21.0802ZM212.42 24.1265C212.766 22.7898 211.962 21.4259 210.626 21.0802L210.125 23.0165C210.392 23.0856 210.553 23.3584 210.484 23.6257L212.42 24.1265ZM195.237 94.5177C200.094 73.8319 205.297 51.6681 212.42 24.1265L210.484 23.6257C203.355 51.1912 198.147 73.3743 193.29 94.0605L195.237 94.5177ZM195.236 94.523L195.236 94.5225L193.291 94.0557L193.291 94.0563L195.236 94.523ZM195.233 94.5328L195.234 94.5311L193.293 94.0482L193.293 94.0498L195.233 94.5328ZM187.434 127.313C190.098 116.405 192.617 105.676 195.236 94.5199L193.289 94.0628C190.67 105.221 188.153 115.941 185.491 126.838L187.434 127.313ZM186.431 128.075C188.942 128.155 191.5 128.168 194.01 127.986L193.866 125.991C191.455 126.166 188.974 126.155 186.495 126.076L186.431 128.075ZM194.01 127.986C198.084 127.692 201.971 126.889 205.257 125.063L204.286 123.315C201.357 124.942 197.795 125.708 193.866 125.991L194.01 127.986ZM205.257 125.063C205.498 124.929 205.803 125.016 205.937 125.258L207.685 124.286C207.014 123.079 205.492 122.645 204.286 123.315L205.257 125.063ZM205.937 125.258C206.071 125.499 205.984 125.804 205.742 125.938L206.714 127.686C207.921 127.015 208.356 125.493 207.685 124.286L205.937 125.258ZM205.742 125.938C202.278 127.862 198.228 128.684 194.083 128.984L194.227 130.978C198.517 130.668 202.893 129.809 206.714 127.686L205.742 125.938ZM194.083 128.984C191.33 129.182 188.51 129.152 185.769 129.053L185.697 131.052C188.466 131.152 191.369 131.185 194.227 130.978L194.083 128.984ZM181.768 149.823C183.503 143.152 185.132 136.681 186.704 130.292L184.762 129.814C183.192 136.197 181.565 142.658 179.832 149.32L181.768 149.823ZM287.276 130.011C255.545 132.863 217.8 140.26 180.582 148.596L181.019 150.548C218.222 142.215 255.862 134.842 287.455 132.003L287.276 130.011ZM289.99 132.277C289.866 130.902 288.651 129.887 287.276 130.011L287.455 132.003C287.73 131.978 287.973 132.181 287.998 132.456L289.99 132.277ZM287.723 134.991C289.099 134.867 290.113 133.652 289.99 132.277L287.998 132.456C288.022 132.731 287.819 132.974 287.544 132.999L287.723 134.991ZM180.166 153.814C217.804 145.355 255.88 137.853 287.723 134.991L287.544 132.999C255.562 135.873 217.379 143.401 179.727 151.862L180.166 153.814ZM171.901 185.697C175.281 174.038 178.228 163.311 180.914 153.092L178.979 152.584C176.298 162.788 173.355 173.498 169.98 185.14L171.901 185.697ZM168.803 187.402C170.13 187.786 171.516 187.023 171.901 185.697L169.98 185.14C169.903 185.405 169.626 185.558 169.36 185.481L168.803 187.402ZM167.099 184.304C166.714 185.63 167.477 187.017 168.803 187.402L169.36 185.481C169.095 185.404 168.942 185.127 169.019 184.861L167.099 184.304ZM175.682 153.326C173.116 163.046 170.304 173.249 167.099 184.304L169.019 184.861C172.229 173.79 175.046 163.572 177.616 153.837L175.682 153.326ZM136.704 163.932C149.796 160.814 163.289 157.631 176.87 154.557L176.428 152.606C162.837 155.683 149.335 158.868 136.24 161.987L136.704 163.932ZM124.494 166.847C128.517 165.886 132.591 164.912 136.704 163.932L136.24 161.987C132.126 162.967 128.052 163.941 124.029 164.902L124.494 166.847ZM124.481 166.85L124.492 166.848L124.03 164.902L124.019 164.904L124.481 166.85ZM124.478 166.851L124.479 166.851L124.021 164.904L124.02 164.904L124.478 166.851ZM124.416 166.866L124.482 166.85L124.017 164.905L123.951 164.921L124.416 166.866ZM124.409 166.867L124.417 166.866L123.949 164.921L123.942 164.923L124.409 166.867ZM116.053 168.863C118.811 168.205 121.598 167.539 124.408 166.868L123.943 164.923C121.133 165.594 118.347 166.26 115.589 166.918L116.053 168.863ZM110.729 178.29L116.678 168.406L114.964 167.375L109.016 177.258L110.729 178.29ZM110.717 178.31L110.729 178.29L109.016 177.258L109.003 177.279L110.717 178.31ZM110.687 178.357L110.7 178.337L109.02 177.252L109.008 177.272L110.687 178.357ZM102.321 190.595C104.61 187.602 107.411 183.429 110.687 178.357L109.007 177.272C105.733 182.341 102.968 186.456 100.733 189.38L102.321 190.595ZM99.1552 194.297C100.12 193.349 101.18 192.088 102.321 190.595L100.733 189.38C99.6151 190.841 98.6206 192.018 97.753 192.871L99.1552 194.297ZM95.9095 196.415C97.1646 196.088 98.2744 195.163 99.1552 194.297L97.753 192.871C96.9036 193.706 96.1144 194.295 95.4049 194.48L95.9095 196.415ZM93.4281 196.198C94.305 196.625 95.194 196.602 95.9095 196.415L95.4049 194.48C95.0313 194.577 94.6525 194.57 94.3046 194.4L93.4281 196.198ZM91.7439 194.481C92.0547 195.096 92.5761 195.782 93.4281 196.198L94.3046 194.4C93.9613 194.233 93.7103 193.938 93.5287 193.579L91.7439 194.481ZM91.0017 190.451C91.0207 191.89 91.1733 193.353 91.7439 194.481L93.5287 193.579C93.1769 192.883 93.0199 191.814 93.0015 190.425L91.0017 190.451ZM92.625 176.569C91.5257 182.835 90.9617 187.437 91.0017 190.451L93.0015 190.425C92.9642 187.615 93.4962 183.176 94.5949 176.914L92.625 176.569ZM92.6322 176.527L92.625 176.569L94.5949 176.914L94.6021 176.873L92.6322 176.527ZM92.6527 176.433L92.6432 176.473L94.591 176.927L94.6005 176.887L92.6527 176.433ZM95.3146 176.027L93.8539 175.686L93.3993 177.633L94.8601 177.974L95.3146 176.027ZM92.6527 176.433C92.6543 176.426 92.5545 176.759 92.7368 177.115C92.877 177.389 93.0986 177.509 93.1362 177.53C93.2038 177.568 93.2608 177.59 93.2781 177.596C93.3024 177.605 93.322 177.611 93.3316 177.614C93.351 177.62 93.3665 177.625 93.371 177.626C93.3776 177.628 93.383 177.629 93.3861 177.63C93.3963 177.632 93.4083 177.635 93.4187 177.638C93.4432 177.643 93.4903 177.654 93.5813 177.676C93.7643 177.719 94.1298 177.804 94.8601 177.974L95.3146 176.027C94.5842 175.856 94.2193 175.771 94.0371 175.728C93.9456 175.707 93.9014 175.697 93.8803 175.692C93.868 175.689 93.8686 175.689 93.8731 175.69C93.8747 175.69 93.8791 175.691 93.8849 175.693C93.8885 175.694 93.9035 175.698 93.9226 175.704C93.932 175.707 93.9515 175.713 93.9757 175.722C93.9929 175.728 94.0498 175.75 94.1174 175.788C94.1549 175.809 94.3765 175.929 94.5167 176.203C94.699 176.559 94.5992 176.892 94.6009 176.885L92.6527 176.433ZM92.6537 176.428L92.6533 176.43L94.6002 176.888L94.6006 176.886L92.6537 176.428ZM92.6548 176.423L92.6532 176.43L94.6011 176.884L94.6027 176.877L92.6548 176.423ZM92.6614 176.395L92.6551 176.422L94.6025 176.878L94.6088 176.851L92.6614 176.395ZM92.6865 176.289L92.6615 176.395L94.6087 176.852L94.6336 176.745L92.6865 176.289ZM92.7277 176.113L92.6866 176.288L94.6335 176.746L94.6746 176.571L92.7277 176.113ZM92.7849 175.871L92.7279 176.113L94.6745 176.572L94.7315 176.33L92.7849 175.871ZM93.1677 174.261C93.0002 174.961 92.8717 175.503 92.785 175.87L94.7314 176.33C94.8177 175.965 94.9458 175.425 95.1128 174.727L93.1677 174.261ZM93.5439 172.696C93.4025 173.282 93.2768 173.805 93.1677 174.261L95.1128 174.727C95.2216 174.272 95.3469 173.75 95.4881 173.166L93.5439 172.696ZM67.9447 179.945C76.2712 178.163 85.261 176.119 94.7434 173.905L94.2886 171.957C84.8123 174.17 75.8357 176.211 67.5261 177.989L67.9447 179.945ZM21.4996 187.001C31.8044 187.001 48.1187 184.188 67.9447 179.945L67.5261 177.989C47.6735 182.238 31.5606 185.001 21.4996 185.001V187.001ZM18.9996 184.501C18.9996 185.881 20.1189 187.001 21.4996 187.001V185.001C21.2235 185.001 20.9996 184.777 20.9996 184.501H18.9996ZM21.4996 182.001C20.1189 182.001 18.9996 183.12 18.9996 184.501H20.9996C20.9996 184.224 21.2235 184.001 21.4996 184.001V182.001ZM66.8983 175.056C47.0054 179.313 31.1947 182.001 21.4996 182.001V184.001C31.4387 184.001 47.4509 181.263 67.3169 177.012L66.8983 175.056ZM95.0831 168.691C85.0765 171.033 75.6191 173.19 66.8983 175.056L67.3169 177.012C76.0553 175.142 85.5266 172.982 95.5389 170.638L95.0831 168.691ZM94.6199 168.286C94.5233 168.679 94.4299 169.059 94.3398 169.426L96.2823 169.902C96.3722 169.536 96.4654 169.156 96.5618 168.765L94.6199 168.286ZM99.8146 148.007C97.6609 156.104 95.8713 163.207 94.6199 168.286L96.5618 168.765C97.811 163.695 99.5975 156.604 101.747 148.521L99.8146 148.007ZM106.519 124.03C104.066 132.336 101.786 140.594 99.8146 148.007L101.747 148.521C103.716 141.12 105.99 132.881 108.437 124.596L106.519 124.03ZM103.608 123.056C104.765 123.987 105.917 124.7 107.063 125.223L107.893 123.403C106.913 122.956 105.902 122.335 104.862 121.498L103.608 123.056ZM103.246 122.764L103.608 123.056L104.862 121.498L104.5 121.206L103.246 122.764ZM102.781 121.827L102.915 122.273L104.83 121.697L104.697 121.252L102.781 121.827ZM102.453 120.64C102.543 120.984 102.652 121.398 102.781 121.827L104.697 121.252C104.579 120.861 104.479 120.479 104.388 120.132L102.453 120.64ZM102.456 120.649L102.456 120.649L104.385 120.123L104.385 120.122L102.456 120.649ZM102.453 120.637L102.453 120.638L104.388 120.133L104.388 120.132L102.453 120.637ZM102.399 120.433L102.453 120.639L104.387 120.13L104.333 119.924L102.399 120.433ZM102.144 119.57C102.215 119.762 102.29 120.023 102.399 120.435L104.333 119.923C104.225 119.516 104.128 119.167 104.017 118.871L102.144 119.57ZM102.081 119.422C102.075 119.411 102.098 119.449 102.144 119.57L104.017 118.871C103.945 118.676 103.875 118.527 103.806 118.41L102.081 119.422ZM102.884 119.932C102.966 119.914 102.993 119.915 102.976 119.915L102.912 117.916C102.786 117.92 102.634 117.939 102.45 117.98L102.884 119.932ZM101.857 120.32C102.377 120.077 102.702 119.972 102.884 119.932L102.45 117.98C102.076 118.063 101.605 118.23 101.011 118.507L101.857 120.32ZM97.0622 123.188C99.2887 121.704 100.809 120.808 101.857 120.32L101.011 118.507C99.8214 119.062 98.1981 120.027 95.9528 121.524L97.0622 123.188ZM91.4329 126.48C92.9893 125.864 94.8746 124.647 97.0622 123.188L95.9528 121.524C93.7162 123.015 92.0171 124.098 90.6975 124.62L91.4329 126.48ZM88.6835 126.968C89.6848 127.052 90.6291 126.798 91.4329 126.48L90.6975 124.62C90.0329 124.883 89.4184 125.023 88.85 124.975L88.6835 126.968ZM85.9113 125.644C86.645 126.397 87.5841 126.877 88.6835 126.968L88.85 124.975C88.2626 124.926 87.7644 124.68 87.3442 124.248L85.9113 125.644ZM84.4694 123.275C84.7993 124.101 85.2427 124.957 85.9113 125.644L87.3442 124.248C86.9371 123.83 86.6123 123.249 86.3267 122.534L84.4694 123.275ZM83.5757 120.349C83.8458 121.441 84.1321 122.431 84.4694 123.275L86.3267 122.534C86.0395 121.814 85.7788 120.926 85.5173 119.869L83.5757 120.349ZM82.348 114.642C82.8075 116.901 83.197 118.817 83.5757 120.349L85.5173 119.869C85.1508 118.387 84.7705 116.518 84.3079 114.244L82.348 114.642ZM82.3458 114.631L82.346 114.632L84.31 114.254L84.3099 114.254L82.3458 114.631ZM82.3459 114.632L82.3479 114.642L84.3078 114.243L84.3058 114.234L82.3459 114.632ZM81.7903 111.918C81.9884 112.874 82.1723 113.779 82.3459 114.632L84.3058 114.233C84.1323 113.38 83.9476 112.473 83.7487 111.512L81.7903 111.918ZM81.0019 111.356C81.0822 111.382 81.4027 111.532 81.9593 112.301L83.5797 111.129C82.9223 110.22 82.289 109.67 81.616 109.453L81.0019 111.356ZM79.8813 111.736C80.327 111.479 80.6139 111.388 80.7797 111.358C80.9292 111.331 80.988 111.352 81.0019 111.356L81.616 109.453C80.9124 109.226 80.0529 109.329 78.8832 110.002L79.8813 111.736ZM75.9593 115.15C77.6974 113.313 78.9613 112.265 79.8813 111.736L78.8831 110.002C77.71 110.678 76.2876 111.893 74.5068 113.775L75.9593 115.15ZM69.6421 122.652C72.1777 119.421 74.2447 116.961 75.9593 115.15L74.5068 113.775C72.7305 115.651 70.62 118.166 68.0688 121.417L69.6421 122.652ZM69.6319 122.665L69.6395 122.655L68.0713 121.414L68.0637 121.423L69.6319 122.665ZM68.3658 124.251C68.7837 123.727 69.2049 123.199 69.6293 122.668L68.0662 121.42C67.6416 121.952 67.2202 122.48 66.8024 123.004L68.3658 124.251ZM55.7803 139.553C59.4073 135.482 63.6857 130.118 68.3658 124.251L66.8024 123.004C62.1101 128.886 57.8697 134.201 54.2869 138.223L55.7803 139.553ZM50.3153 145.082C51.9673 143.669 53.8058 141.77 55.7803 139.553L54.2869 138.223C52.3351 140.414 50.5662 142.236 49.0154 143.562L50.3153 145.082ZM45.2836 147.947C47.0224 147.621 48.7532 146.418 50.3153 145.082L49.0154 143.562C47.4836 144.872 46.0974 145.759 44.9152 145.981L45.2836 147.947ZM42.2133 147.478C43.232 148.062 44.3228 148.127 45.2836 147.947L44.9152 145.981C44.3049 146.095 43.7217 146.037 43.2081 145.743L42.2133 147.478ZM40.2065 145.119C40.5961 146.017 41.2203 146.908 42.2133 147.478L43.2081 145.743C42.6994 145.451 42.3181 144.961 42.0413 144.323L40.2065 145.119ZM39.4111 138.294C39.296 141.067 39.4713 143.424 40.2065 145.119L42.0413 144.323C41.4972 143.069 41.2964 141.101 41.4094 138.377L39.4111 138.294ZM44.2384 110.551C41.2021 123.627 39.6468 132.616 39.4111 138.294L41.4094 138.377C41.6366 132.903 43.1514 124.075 46.1865 111.003L44.2384 110.551ZM44.2402 110.543L44.2384 110.551L46.1866 111.003L46.1884 110.995L44.2402 110.543ZM51.7342 76.5696L44.2378 110.553L46.1909 110.984L53.6872 77.0004L51.7342 76.5696ZM51.7452 76.5193L51.7342 76.5696L53.6872 77.0004L53.6983 76.9501L51.7452 76.5193ZM51.7769 76.4033L51.7623 76.4528L53.6812 77.0166L53.6957 76.9672L51.7769 76.4033ZM65.1755 14.6145C65.2107 28.3182 61.4769 43.3867 51.7768 76.4034L53.6957 76.9672C63.3753 44.0201 67.2116 28.6587 67.1755 14.6094L65.1755 14.6145ZM64.5973 6.62599C64.9803 8.43652 65.1665 11.12 65.1755 14.6145L67.1755 14.6094C67.1664 11.0835 66.9812 8.23146 66.554 6.21208L64.5973 6.62599ZM64.0338 4.91257C64.1928 5.18181 64.4044 5.71405 64.5973 6.62599L66.554 6.21208C66.3402 5.20141 66.072 4.43072 65.7558 3.89539L64.0338 4.91257ZM63.9749 4.8149C63.9521 4.7955 63.9487 4.78858 63.961 4.80386C63.973 4.81865 63.9983 4.85249 64.0338 4.91256L65.7558 3.8954C65.599 3.62997 65.4366 3.43294 65.2728 3.29329L63.9749 4.8149ZM64.3367 4.98195C64.3368 4.98196 64.3337 4.98132 64.33 4.98049C64.326 4.97963 64.3213 4.97857 64.3161 4.97734C64.3054 4.97484 64.2941 4.97197 64.2821 4.96869C64.258 4.9621 64.2346 4.95469 64.2119 4.94653C64.1667 4.93028 64.1279 4.91235 64.0956 4.89515C64.0322 4.86143 63.992 4.82949 63.9749 4.81491L65.2728 3.29328C65.1289 3.17048 64.9571 3.069 64.7513 3.02539L64.3367 4.98195ZM64.3331 4.98118L64.3333 4.98122L64.7547 3.02611L64.7545 3.02607L64.3331 4.98118ZM64.3147 4.97704L64.3149 4.97708L64.7727 3.03017L64.7725 3.03013L64.3147 4.97704ZM64.6151 4.99118C64.6091 4.99255 64.5747 4.99983 64.5178 5.0005C64.489 5.00084 64.4547 4.99948 64.4158 4.99489C64.3963 4.99258 64.3763 4.98955 64.3559 4.98572C64.3457 4.98381 64.336 4.98181 64.3268 4.97978C64.3222 4.97877 64.3181 4.97783 64.3146 4.977C64.3129 4.97659 64.3114 4.97624 64.3102 4.97596C64.3091 4.9757 64.3083 4.97549 64.3083 4.97551L64.7789 3.03166C64.6006 2.98849 64.4003 2.98909 64.1726 3.04074L64.6151 4.99118ZM64.3692 5.11042C64.5481 5.00516 64.6269 4.9885 64.6151 4.99118L64.1726 3.04075C63.9366 3.09429 63.665 3.20424 63.3548 3.38678L64.3692 5.11042ZM62.6126 6.68755C63.4107 5.80358 63.9927 5.33203 64.3692 5.11042L63.3548 3.38678C62.7307 3.75411 61.9917 4.39078 61.1281 5.34729L62.6126 6.68755ZM56.3643 15.8179C58.9767 11.3836 61.0317 8.43861 62.6126 6.68755L61.1281 5.34729C59.4098 7.25059 57.2733 10.3348 54.6411 14.8028L56.3643 15.8179ZM152.799 14.7314L154.144 15.3968L155.031 13.6043L153.687 12.9389L152.799 14.7314ZM155.696 12.26C154.459 11.6475 152.959 12.1541 152.347 13.3915L154.139 14.2788C154.262 14.0313 154.562 13.9299 154.809 14.0524L155.696 12.26ZM156.828 15.6096C157.44 14.3721 156.934 12.8725 155.696 12.26L154.809 14.0524C155.057 14.1749 155.158 14.4749 155.035 14.7224L156.828 15.6096ZM154.144 15.3968L155.488 16.0622L156.375 14.2697L155.031 13.6043L154.144 15.3968ZM98.0305 175.425C98.2229 174.62 98.4676 173.604 98.7602 172.401L96.8168 171.928C96.5236 173.134 96.2784 174.153 96.0854 174.959L98.0305 175.425ZM97.6511 177.02C97.7367 176.657 97.8641 176.12 98.0305 175.425L96.0854 174.959C95.9185 175.657 95.7907 176.196 95.7046 176.56L97.6511 177.02ZM97.5958 177.254L97.6511 177.019L95.7045 176.56L95.6492 176.795L97.5958 177.254ZM97.5541 177.431L97.596 177.253L95.6491 176.796L95.6072 176.974L97.5541 177.431ZM97.5311 177.529L97.5542 177.431L95.6071 176.974L95.5839 177.073L97.5311 177.529ZM96.0012 190.385C95.9681 187.889 96.4498 183.708 97.5425 177.474L95.5725 177.129C94.4793 183.367 93.9656 187.711 94.0014 190.411L96.0012 190.385ZM96.1729 192.124C96.1038 191.877 96.0139 191.343 96.0012 190.385L94.0014 190.411C94.0153 191.459 94.1127 192.183 94.2469 192.663L96.1729 192.124ZM95.6496 190.732C95.1681 191.205 94.8501 191.44 94.6835 191.543L95.7363 193.244C96.0667 193.039 96.5013 192.699 97.0518 192.158L95.6496 190.732ZM98.3493 187.558C97.2683 188.972 96.3717 190.022 95.6495 190.732L97.0518 192.158C97.8709 191.353 98.8329 190.218 99.9382 188.773L98.3493 187.558ZM106.474 175.664C103.208 180.72 100.504 184.74 98.3494 187.558L99.9382 188.773C102.145 185.886 104.887 181.808 108.154 176.749L106.474 175.664ZM110.876 168.349L106.458 175.691L108.171 176.722L112.59 169.381L110.876 168.349ZM98.017 173.138C102.565 172.071 107.221 170.967 111.965 169.838L111.501 167.892C106.759 169.021 102.106 170.124 97.56 171.191L98.017 173.138ZM103.895 118.955C103.875 119.158 103.768 119.504 103.409 119.717C103.098 119.9 102.803 119.857 102.697 119.835C102.486 119.791 102.345 119.687 102.332 119.678C102.253 119.624 102.201 119.57 102.189 119.558C102.15 119.517 102.124 119.483 102.113 119.469L103.718 118.275C103.697 118.248 103.664 118.205 103.619 118.159C103.604 118.144 103.55 118.089 103.47 118.034C103.457 118.024 103.315 117.92 103.104 117.876C102.998 117.854 102.702 117.811 102.392 117.994C102.032 118.207 101.925 118.553 101.905 118.756L103.895 118.955ZM103.56 118.107C103.588 118.131 103.622 118.162 103.658 118.204C103.674 118.222 103.703 118.257 103.734 118.304C103.748 118.326 103.777 118.37 103.805 118.431C103.82 118.461 103.842 118.513 103.862 118.581C103.877 118.635 103.913 118.775 103.895 118.956L101.905 118.755C101.887 118.936 101.923 119.076 101.939 119.131C101.958 119.199 101.981 119.251 101.995 119.282C102.024 119.343 102.053 119.388 102.068 119.411C102.101 119.46 102.131 119.496 102.15 119.518C102.191 119.565 102.233 119.604 102.271 119.636L103.56 118.107ZM150.725 127.264C150.941 127.064 151.177 127.018 151.283 127.004C151.4 126.99 151.493 127 151.54 127.006C151.634 127.019 151.705 127.043 151.729 127.051C151.787 127.071 151.83 127.092 151.843 127.098C151.877 127.114 151.903 127.129 151.912 127.135C151.936 127.149 151.954 127.161 151.964 127.168L150.835 128.819C150.849 128.828 150.87 128.842 150.896 128.857C150.906 128.864 150.933 128.879 150.967 128.896C150.98 128.902 151.023 128.923 151.082 128.943C151.106 128.951 151.177 128.975 151.271 128.988C151.318 128.994 151.411 129.004 151.528 128.989C151.634 128.976 151.87 128.93 152.086 128.73L150.725 127.264ZM150.811 128.801C150.804 128.796 150.771 128.772 150.734 128.738C150.722 128.727 150.664 128.675 150.604 128.596C150.581 128.564 150.501 128.456 150.45 128.293C150.399 128.128 150.32 127.668 150.698 127.29L152.113 128.704C152.491 128.326 152.412 127.866 152.361 127.701C152.31 127.538 152.23 127.43 152.206 127.398C152.147 127.319 152.089 127.267 152.077 127.256C152.039 127.222 152.007 127.198 151.999 127.192L150.811 128.801ZM150.852 128.83L150.853 128.831L151.957 127.163L151.956 127.162L150.852 128.83ZM150.91 128.866L150.915 128.868L151.893 127.124L151.889 127.121L150.91 128.866Z" fill="black"/>
</svg>
