<svg width="292" height="229" viewBox="0 0 292 229" fill="none" xmlns="http://www.w3.org/2000/svg">
<path fill-rule="evenodd" clip-rule="evenodd" d="M56.3797 15.6463C6.55558 121.16 -5.42993 180.203 12.1065 225.758C12.5033 226.789 11.9894 227.946 10.9585 228.343C9.92771 228.74 8.77037 228.226 8.37355 227.195C-9.84163 179.877 2.97801 119.351 52.8017 13.8558L52.8404 13.7738L52.8864 13.6956C55.5817 9.11562 57.8496 5.81187 59.7625 3.69309C60.7158 2.63725 61.6574 1.78874 62.5965 1.23607C63.5333 0.684723 64.674 0.311831 65.8802 0.599411C67.1057 0.891583 67.9221 1.75006 68.444 2.63353C68.9594 3.50601 69.3008 4.5813 69.5428 5.72503C70.0288 8.0227 70.2144 11.1096 70.2236 14.7048C70.2612 29.2953 66.2698 45.1408 56.5484 78.2335L49.0001 112.452L48.9977 112.463L48.9952 112.474C45.9346 125.654 44.4573 134.358 44.2387 139.624C44.1272 142.311 44.3623 143.807 44.6712 144.519C44.7148 144.62 44.7526 144.688 44.7809 144.732C44.79 144.73 44.8 144.728 44.8108 144.726C45.304 144.634 46.2691 144.137 47.7789 142.845C49.216 141.616 50.9127 139.877 52.8525 137.699C56.4204 133.694 60.6548 128.386 65.4039 122.433C65.8171 121.915 66.2342 121.392 66.655 120.865C69.2452 117.565 71.4264 114.962 73.2937 112.989C75.1434 111.035 76.7762 109.6 78.2758 108.737C79.8036 107.857 81.424 107.444 83.0503 107.969C84.5852 108.464 85.6766 109.661 86.5169 110.898L86.7398 111.226L86.8206 111.615C87.0575 112.754 87.2709 113.803 87.4675 114.77L87.4681 114.773C87.924 117.014 88.2893 118.81 88.6465 120.255C88.8998 121.279 89.1304 122.046 89.3573 122.614C89.5768 123.164 89.7485 123.411 89.8367 123.509C89.9281 123.503 90.1384 123.469 90.5185 123.318C91.5518 122.91 93.0303 121.988 95.3498 120.442C97.6376 118.916 99.4031 117.856 100.781 117.214C102.058 116.618 103.436 116.162 104.728 116.494C106.27 116.891 106.911 118.154 107.218 118.975C107.377 119.402 107.503 119.864 107.61 120.27L107.671 120.503C107.709 120.645 107.746 120.786 107.783 120.926C108.18 121.219 108.566 121.471 108.941 121.688C111.568 112.956 114.367 104.291 117.181 96.6035C123.07 80.5214 132.302 59.785 140.042 43.1056C143.916 34.7579 147.423 27.412 149.962 22.1528C151.231 19.523 152.259 17.4145 152.969 15.963C153.324 15.2372 153.6 14.6757 153.787 14.2952L154.001 13.8626L154.055 13.7521L154.069 13.724L154.073 13.7168L154.074 13.715C154.074 13.7145 154.074 13.7143 155.708 14.5232L154.074 13.7143C154.564 12.7243 155.764 12.319 156.754 12.809C157.744 13.299 158.149 14.4987 157.659 15.4887L156.076 14.705C157.659 15.4887 157.659 15.4888 157.659 15.4892L157.658 15.4908L157.655 15.4975L157.641 15.5246L157.588 15.6332C157.566 15.6762 157.54 15.7286 157.51 15.7903C157.472 15.8668 157.428 15.9574 157.376 16.062C157.19 16.4397 156.916 16.9985 156.562 17.7214C155.854 19.1671 154.83 21.269 153.564 23.8916C151.032 29.1371 147.534 36.4642 143.671 44.7894C135.936 61.4555 126.765 82.064 120.938 97.9789C118.149 105.594 115.371 114.197 112.758 122.883C113.793 122.94 114.807 122.793 115.831 122.524C116.894 122.246 117.877 121.867 118.921 121.465L118.921 121.465L118.921 121.465L118.921 121.465L118.921 121.464C119.219 121.35 119.522 121.233 119.833 121.116C121.129 120.629 122.652 120.106 124.19 120.106C125.295 120.106 126.19 121.001 126.19 122.106C126.19 123.21 125.295 124.106 124.19 124.106C123.46 124.106 122.555 124.367 121.24 124.86C120.997 124.952 120.74 125.051 120.471 125.155C119.403 125.568 118.147 126.053 116.845 126.394C115.276 126.805 113.514 127.048 111.596 126.787C109.19 134.952 106.949 143.071 105.002 150.393C102.994 157.944 101.3 164.635 100.062 169.637C104.778 168.527 109.605 167.38 114.525 166.207L140.539 122.983L140.547 122.971C142.022 120.557 143.316 118.757 144.485 117.677C145.066 117.141 145.781 116.625 146.625 116.413C147.598 116.169 148.564 116.378 149.343 116.994C150.015 117.528 150.429 118.27 150.706 118.929C150.996 119.619 151.22 120.425 151.407 121.292C151.764 122.952 152.031 125.081 152.279 127.532C152.452 127.913 152.598 128.18 152.716 128.363C152.739 128.345 152.765 128.326 152.791 128.305C153.179 128.002 153.686 127.499 154.364 126.728C155.093 125.898 156.357 125.816 157.187 126.545C158.016 127.274 158.098 128.538 157.369 129.368C156.643 130.194 155.94 130.921 155.255 131.456C154.599 131.969 153.722 132.499 152.669 132.538C151.481 132.583 150.565 131.999 149.927 131.29C149.336 130.632 148.877 129.759 148.481 128.834L148.36 128.551L148.33 128.245C148.074 125.667 147.817 123.623 147.496 122.132C147.366 121.526 147.234 121.056 147.106 120.704C146.379 121.408 145.356 122.773 143.963 125.052L143.959 125.057L119.976 164.906L123.872 163.975L124.442 163.839L124.443 163.839L124.445 163.838C128.509 162.867 132.626 161.883 136.785 160.892C150.381 157.654 164.431 154.34 178.584 151.145C180.343 144.408 181.991 137.886 183.578 131.452C183.577 131.452 183.575 131.452 183.574 131.452L183.162 131.432C179.132 131.24 175.69 131.101 173.04 131.492C170.369 131.886 169.189 132.712 168.72 133.851C168.299 134.873 167.13 135.36 166.109 134.939C165.088 134.519 164.601 133.35 165.021 132.328C166.317 129.182 169.359 127.991 172.456 127.534C175.572 127.075 179.441 127.25 183.352 127.437L183.679 127.452C183.968 127.466 184.258 127.48 184.549 127.493C187.238 116.488 189.778 105.669 192.423 94.3985L192.423 94.3976C197.318 73.5438 202.575 51.1467 209.809 23.1764C210.085 22.107 211.176 21.4643 212.246 21.7409C213.315 22.0175 213.958 23.1086 213.681 24.178C206.502 51.9376 201.253 74.2923 196.356 95.1531L196.355 95.1541C193.759 106.213 191.261 116.852 188.626 127.654C190.934 127.717 193.249 127.713 195.513 127.55C199.513 127.261 203.189 126.479 206.236 124.787C207.201 124.25 208.419 124.598 208.955 125.564C209.492 126.529 209.144 127.747 208.178 128.283C204.418 130.373 200.09 131.23 195.802 131.539C193.085 131.736 190.319 131.715 187.653 131.626C186.158 137.697 184.612 143.84 182.972 150.159C220.252 141.824 257.982 134.455 289.718 131.602C290.818 131.503 291.79 132.315 291.889 133.415C291.988 134.515 291.176 135.487 290.076 135.586C258.005 138.469 219.694 146.01 181.835 154.513C179.148 164.73 176.201 175.451 172.825 187.093C172.518 188.153 171.408 188.764 170.347 188.456C169.286 188.149 168.676 187.039 168.983 185.979C172.132 175.119 174.904 165.076 177.437 155.506C164.006 158.55 150.664 161.698 137.712 164.783C133.589 165.766 129.506 166.741 125.472 167.705L125.405 167.721L125.389 167.725L125.386 167.726L125.327 167.74L125.122 167.789C122.42 168.435 119.74 169.075 117.086 169.708L111.193 179.5L111.177 179.527L111.16 179.553C107.857 184.667 105.041 188.86 102.747 191.86C101.602 193.358 100.55 194.607 99.6028 195.539C98.7234 196.404 97.6875 197.249 96.5636 197.542C95.9304 197.707 95.1671 197.722 94.4212 197.359C93.6949 197.005 93.2394 196.415 92.9594 195.861C92.4409 194.835 92.286 193.463 92.267 192.025C92.2274 189.039 92.7878 184.44 93.8961 178.123L93.9057 178.068L93.9184 178.014L95.866 178.468C93.9184 178.014 93.9184 178.013 93.9185 178.013L93.9189 178.011L93.9206 178.004L93.927 177.977L93.9522 177.869C93.9745 177.774 94.0077 177.633 94.0513 177.448C94.1387 177.079 94.2681 176.533 94.437 175.827L94.5168 175.494L94.6309 175.019C85.3525 177.182 76.5516 179.181 68.386 180.928C48.3864 185.208 31.9874 188.031 21.6594 188.031C20.5548 188.031 19.6594 187.136 19.6594 186.031C19.6594 184.927 20.5548 184.031 21.6594 184.031C31.4996 184.031 47.4958 181.308 67.549 177.017C76.2641 175.152 85.7059 173 95.6895 170.664C95.758 170.384 95.8284 170.098 95.9005 169.806C97.1619 164.686 98.9658 157.526 101.137 149.365C103.092 142.013 105.348 133.836 107.776 125.599C106.789 125.112 105.792 124.474 104.785 123.664L104.302 123.275L104.124 122.681C103.996 122.258 103.888 121.846 103.797 121.498L103.743 121.293C103.645 120.921 103.569 120.653 103.495 120.442C103.289 120.498 102.96 120.611 102.472 120.839C101.379 121.349 99.8186 122.27 97.5686 123.77C95.3501 125.249 93.4973 126.442 91.9894 127.038C91.2151 127.344 90.3488 127.571 89.4518 127.496C88.4766 127.415 87.6445 126.992 86.9861 126.316C86.38 125.693 85.9637 124.902 85.6427 124.098C85.3156 123.279 85.0335 122.307 84.7635 121.215C84.3851 119.685 83.9937 117.761 83.5276 115.469C83.3588 114.639 83.1802 113.761 82.9888 112.836C82.4359 112.092 82.0511 111.85 81.8222 111.776C81.6556 111.722 81.2377 111.647 80.2721 112.203C79.2784 112.775 77.9626 113.875 76.1987 115.739C74.4537 117.582 72.358 120.077 69.797 123.34L69.7919 123.347L69.7867 123.353L69.3577 123.891L68.5099 124.954L68.5097 124.954C63.7874 130.874 59.4839 136.268 55.8394 140.359C53.8542 142.588 52.0184 144.483 50.3788 145.885C48.8119 147.225 47.1562 148.357 45.5475 148.658C44.6694 148.823 43.7018 148.759 42.8065 148.245C41.9316 147.743 41.3653 146.95 41.0017 146.111C40.31 144.517 40.1266 142.241 40.2421 139.458C40.4776 133.785 42.0353 124.764 45.0964 111.58L52.6571 77.3048L52.6719 77.2377L52.6912 77.1719C62.4675 43.8957 66.2594 28.6241 66.2237 14.7151C66.2146 11.183 66.0271 8.43306 65.6294 6.55286C65.4294 5.60766 65.2013 5.00876 65 4.66786C64.9677 4.61329 64.9395 4.57063 64.9158 4.53767C64.8482 4.56395 64.7526 4.60843 64.6254 4.68334C64.1811 4.9448 63.5533 5.46337 62.7315 6.37361C61.1037 8.17655 59.0138 11.1766 56.3797 15.6463ZM98.9928 173.998C98.7287 175.085 98.5057 176.012 98.3272 176.758C98.1593 177.46 98.0307 178.002 97.9442 178.368C97.901 178.551 97.8682 178.69 97.8464 178.783L97.8262 178.869C96.7259 185.15 96.2326 189.404 96.2666 191.972C96.2729 192.445 96.2973 192.823 96.3298 193.122C96.4716 192.999 96.6277 192.854 96.7982 192.687C97.5517 191.946 98.4729 190.865 99.5694 189.431C101.755 186.573 104.49 182.506 107.782 177.41L111.636 171.007C107.343 172.028 103.125 173.028 98.9928 173.998ZM65.0451 4.50059C65.0451 4.50074 65.0425 4.5011 65.0375 4.50125C65.0427 4.50051 65.0452 4.50044 65.0451 4.50059ZM64.837 4.44388C64.8309 4.43968 64.8279 4.43697 64.8279 4.43666C64.828 4.43636 64.8311 4.43846 64.837 4.44388ZM103.364 120.134C103.364 120.134 103.365 120.135 103.367 120.139C103.365 120.136 103.364 120.134 103.364 120.134ZM44.8353 144.803C44.8354 144.803 44.8341 144.802 44.8315 144.799C44.834 144.801 44.8353 144.802 44.8353 144.803Z" fill="#2A2A2A"/>
</svg>
